<svg width="234" height="234" viewBox="0 0 234 234" fill="none" xmlns="http://www.w3.org/2000/svg">
<rect width="234" height="234" fill="#EFECDE"/>
<path d="M165.954 71.7047C165.231 71.1924 165.051 70.2166 165.524 69.5129C165.997 68.8093 166.959 68.6764 167.682 69.1887C168.405 69.701 168.585 70.6769 168.112 71.3805C167.639 72.0842 166.677 72.2169 165.954 71.7047Z" fill="#011314"/>
<path d="M160.993 76.1175C160.27 75.6052 160.09 74.6293 160.563 73.9257C161.036 73.222 161.997 73.0892 162.72 73.6014C163.443 74.1137 163.623 75.0896 163.15 75.7933C162.677 76.4969 161.716 76.6297 160.993 76.1175Z" fill="#011314"/>
<path d="M156.095 80.5545C155.372 80.0423 155.192 79.0664 155.665 78.3628C156.138 77.6592 157.099 77.5265 157.822 78.0387C158.545 78.5509 158.725 79.5267 158.252 80.2303C157.779 80.9339 156.818 81.0667 156.095 80.5545Z" fill="#011314"/>
<path d="M151.133 84.9676C150.41 84.4554 150.23 83.4795 150.703 82.7759C151.176 82.0723 152.137 81.9394 152.86 82.4516C153.583 82.9639 153.763 83.9398 153.29 84.6434C152.817 85.347 151.856 85.4799 151.133 84.9676Z" fill="#011314"/>
<path d="M146.191 89.4243C145.468 88.9121 145.288 87.9362 145.761 87.2325C146.234 86.5289 147.196 86.3961 147.919 86.9083C148.642 87.4206 148.822 88.3964 148.349 89.1001C147.876 89.8037 146.915 89.9365 146.191 89.4243Z" fill="#011314"/>
<path d="M141.274 93.8174C140.551 93.3051 140.371 92.3292 140.844 91.6256C141.317 90.922 142.278 90.7891 143.001 91.3014C143.725 91.8136 143.905 92.7895 143.432 93.4931C142.958 94.1967 141.961 94.3562 141.274 93.8174Z" fill="#011314"/>
<path d="M136.332 98.2742C135.609 97.762 135.429 96.7861 135.902 96.0825C136.375 95.3789 137.336 95.246 138.059 95.7582C138.782 96.2705 138.963 97.2464 138.489 97.95C138.016 98.6536 137.055 98.7865 136.332 98.2742Z" fill="#011314"/>
<path d="M131.37 102.687C130.647 102.175 130.467 101.199 130.94 100.496C131.413 99.7919 132.374 99.6591 133.098 100.171C133.821 100.684 134.001 101.659 133.528 102.363C133.055 103.067 132.093 103.199 131.37 102.687Z" fill="#011314"/>
<path d="M126.473 107.124C125.75 106.612 125.569 105.636 126.043 104.932C126.516 104.229 127.477 104.096 128.2 104.608C128.923 105.12 129.103 106.096 128.63 106.8C128.157 107.503 127.16 107.663 126.473 107.124Z" fill="#011314"/>
<path d="M121.511 111.537C120.788 111.025 120.608 110.049 121.081 109.345C121.554 108.642 122.516 108.509 123.239 109.021C123.962 109.533 124.142 110.509 123.669 111.213C123.196 111.916 122.235 112.049 121.511 111.537Z" fill="#011314"/>
<path d="M167.83 78.9247C167.107 78.4125 166.927 77.4366 167.4 76.733C167.873 76.0293 168.834 75.8965 169.557 76.4087C170.281 76.921 170.461 77.8969 169.987 78.6005C169.514 79.3041 168.553 79.437 167.83 78.9247Z" fill="#011314"/>
<path d="M162.868 83.3377C162.145 82.8255 161.965 81.8495 162.438 81.1459C162.911 80.4423 163.872 80.3095 164.596 80.8218C165.319 81.334 165.499 82.3099 165.026 83.0135C164.553 83.7171 163.591 83.85 162.868 83.3377Z" fill="#011314"/>
<path d="M157.971 87.7746C157.247 87.2624 157.067 86.2866 157.541 85.5829C158.014 84.8793 158.975 84.7465 159.698 85.2587C160.421 85.7709 160.601 86.7468 160.128 87.4504C159.655 88.1541 158.658 88.3135 157.971 87.7746Z" fill="#011314"/>
<path d="M153.009 92.1873C152.286 91.6751 152.106 90.6992 152.579 89.9956C153.052 89.292 154.013 89.1591 154.736 89.6714C155.46 90.1836 155.64 91.1595 155.167 91.8631C154.693 92.5667 153.732 92.6996 153.009 92.1873Z" fill="#011314"/>
<path d="M148.067 96.6443C147.344 96.1321 147.164 95.1562 147.637 94.4526C148.11 93.7489 149.071 93.6162 149.794 94.1284C150.518 94.6406 150.698 95.6165 150.225 96.3201C149.751 97.0237 148.79 97.1565 148.067 96.6443Z" fill="#011314"/>
<path d="M143.105 101.057C142.382 100.545 142.202 99.5692 142.675 98.8656C143.148 98.162 144.109 98.0291 144.833 98.5413C145.556 99.0536 145.736 100.029 145.263 100.733C144.79 101.437 143.828 101.57 143.105 101.057Z" fill="#011314"/>
<path d="M138.208 105.494C137.485 104.982 137.304 104.006 137.778 103.302C138.251 102.599 139.212 102.466 139.935 102.978C140.658 103.491 140.838 104.466 140.365 105.17C139.892 105.874 138.895 106.033 138.208 105.494Z" fill="#011314"/>
<path d="M133.246 109.907C132.523 109.395 132.343 108.419 132.816 107.715C133.289 107.012 134.251 106.879 134.974 107.391C135.697 107.903 135.877 108.879 135.404 109.583C134.931 110.286 133.97 110.419 133.246 109.907Z" fill="#011314"/>
<path d="M128.304 114.364C127.581 113.852 127.401 112.876 127.874 112.172C128.347 111.469 129.309 111.336 130.032 111.848C130.755 112.36 130.935 113.336 130.462 114.04C129.989 114.743 129.028 114.876 128.304 114.364Z" fill="#011314"/>
<path d="M123.386 118.757C122.663 118.245 122.483 117.269 122.956 116.565C123.429 115.862 124.391 115.729 125.114 116.241C125.837 116.753 126.017 117.729 125.544 118.433C125.071 119.137 124.074 119.296 123.386 118.757Z" fill="#011314"/>
<path d="M174.804 81.5642C174.081 81.052 173.9 80.0761 174.374 79.3725C174.847 78.6689 175.808 78.536 176.531 79.0482C177.254 79.5605 177.434 80.5364 176.961 81.24C176.488 81.9436 175.527 82.0765 174.804 81.5642Z" fill="#011314"/>
<path d="M169.886 85.9572C169.163 85.445 168.983 84.4691 169.456 83.7655C169.929 83.0619 170.89 82.929 171.614 83.4413C172.337 83.9535 172.517 84.9294 172.044 85.633C171.571 86.3366 170.574 86.4961 169.886 85.9572Z" fill="#011314"/>
<path d="M164.945 90.414C164.222 89.9018 164.042 88.9259 164.515 88.2222C164.988 87.5186 165.949 87.3858 166.672 87.898C167.395 88.4103 167.576 89.3861 167.102 90.0898C166.629 90.7934 165.668 90.9262 164.945 90.414Z" fill="#011314"/>
<path d="M159.983 94.8271C159.26 94.3148 159.08 93.3389 159.553 92.6352C160.026 91.9315 160.987 91.7987 161.71 92.311C162.433 92.8234 162.613 93.7994 162.14 94.5031C161.667 95.2068 160.734 95.3768 159.983 94.8271Z" fill="#011314"/>
<path d="M155.041 99.2837C154.318 98.7714 154.138 97.7955 154.611 97.0919C155.084 96.3883 156.045 96.2554 156.769 96.7677C157.492 97.2799 157.672 98.2558 157.199 98.9594C156.726 99.6631 155.764 99.7959 155.041 99.2837Z" fill="#011314"/>
<path d="M150.144 103.721C149.42 103.209 149.24 102.233 149.713 101.529C150.187 100.826 151.148 100.693 151.871 101.205C152.594 101.717 152.774 102.693 152.301 103.397C151.828 104.1 150.831 104.26 150.144 103.721Z" fill="#011314"/>
<path d="M145.182 108.134C144.459 107.621 144.279 106.645 144.752 105.942C145.225 105.238 146.186 105.105 146.909 105.618C147.633 106.13 147.813 107.106 147.339 107.809C146.866 108.513 145.905 108.646 145.182 108.134Z" fill="#011314"/>
<path d="M140.24 112.591C139.517 112.078 139.337 111.102 139.81 110.399C140.283 109.695 141.244 109.562 141.967 110.075C142.691 110.587 142.871 111.563 142.397 112.266C141.924 112.97 140.963 113.103 140.24 112.591Z" fill="#011314"/>
<path d="M135.323 116.983C134.6 116.471 134.419 115.495 134.893 114.792C135.366 114.088 136.327 113.955 137.05 114.468C137.773 114.98 137.953 115.955 137.48 116.659C137.007 117.363 136.01 117.522 135.323 116.983Z" fill="#011314"/>
<path d="M130.381 121.44C129.657 120.928 129.477 119.952 129.951 119.249C130.424 118.545 131.385 118.412 132.108 118.925C132.831 119.437 133.011 120.413 132.538 121.116C132.065 121.82 131.104 121.953 130.381 121.44Z" fill="#011314"/>
<path d="M176.68 88.784C175.957 88.2718 175.777 87.2959 176.25 86.5923C176.723 85.8887 177.684 85.7559 178.407 86.2681C179.131 86.7804 179.311 87.7562 178.838 88.4598C178.364 89.1634 177.403 89.2963 176.68 88.784Z" fill="#011314"/>
<path d="M171.738 93.241C171.015 92.7288 170.835 91.753 171.308 91.0494C171.781 90.3458 172.742 90.2129 173.465 90.7251C174.188 91.2374 174.369 92.2133 173.895 92.9169C173.422 93.6205 172.461 93.7533 171.738 93.241Z" fill="#011314"/>
<path d="M166.82 97.6339C166.097 97.1217 165.917 96.1458 166.39 95.4422C166.863 94.7385 167.825 94.6057 168.548 95.1179C169.271 95.6302 169.451 96.6061 168.978 97.3097C168.505 98.0133 167.508 98.1728 166.82 97.6339Z" fill="#011314"/>
<path d="M161.879 102.091C161.156 101.579 160.975 100.603 161.449 99.8992C161.922 99.1956 162.883 99.0628 163.606 99.575C164.329 100.087 164.509 101.063 164.036 101.767C163.563 102.47 162.602 102.603 161.879 102.091Z" fill="#011314"/>
<path d="M156.917 106.504C156.194 105.992 156.014 105.016 156.487 104.312C156.96 103.608 157.921 103.476 158.644 103.988C159.368 104.5 159.548 105.476 159.075 106.18C158.601 106.883 157.64 107.016 156.917 106.504Z" fill="#011314"/>
<path d="M151.975 110.961C151.252 110.448 151.072 109.472 151.545 108.769C152.018 108.065 152.979 107.932 153.702 108.445C154.426 108.957 154.606 109.933 154.133 110.636C153.659 111.34 152.698 111.473 151.975 110.961Z" fill="#011314"/>
<path d="M147.058 115.354C146.334 114.841 146.154 113.866 146.627 113.162C147.1 112.458 148.062 112.325 148.785 112.838C149.508 113.35 149.688 114.326 149.215 115.029C148.742 115.733 147.781 115.866 147.058 115.354Z" fill="#011314"/>
<path d="M142.116 119.811C141.393 119.298 141.212 118.323 141.686 117.619C142.159 116.915 143.12 116.782 143.843 117.295C144.566 117.807 144.746 118.783 144.273 119.486C143.8 120.19 142.839 120.323 142.116 119.811Z" fill="#011314"/>
<path d="M137.154 124.223C136.431 123.711 136.251 122.735 136.724 122.032C137.197 121.328 138.158 121.195 138.882 121.707C139.605 122.22 139.785 123.196 139.312 123.899C138.839 124.603 137.877 124.736 137.154 124.223Z" fill="#011314"/>
<path d="M132.257 128.66C131.534 128.148 131.354 127.172 131.827 126.469C132.3 125.765 133.261 125.632 133.984 126.144C134.707 126.657 134.888 127.633 134.414 128.336C133.941 129.04 132.944 129.199 132.257 128.66Z" fill="#011314"/>
<path d="M183.654 91.4235C182.931 90.9113 182.751 89.9354 183.224 89.2318C183.697 88.5281 184.658 88.3953 185.382 88.9075C186.105 89.4198 186.285 90.3957 185.812 91.0993C185.339 91.8029 184.377 91.9357 183.654 91.4235Z" fill="#011314"/>
<path d="M178.757 95.8604C178.033 95.3481 177.853 94.3722 178.326 93.6686C178.8 92.965 179.761 92.8321 180.484 93.3444C181.207 93.8566 181.387 94.8325 180.914 95.5361C180.441 96.2398 179.444 96.3993 178.757 95.8604Z" fill="#011314"/>
<path d="M173.795 100.273C173.071 99.7612 172.891 98.7854 173.364 98.0818C173.838 97.3782 174.799 97.2453 175.522 97.7576C176.245 98.2698 176.425 99.2457 175.952 99.9493C175.479 100.653 174.518 100.786 173.795 100.273Z" fill="#011314"/>
<path d="M168.853 104.73C168.13 104.218 167.95 103.242 168.423 102.539C168.896 101.835 169.857 101.702 170.58 102.214C171.303 102.727 171.484 103.702 171.01 104.406C170.537 105.11 169.576 105.243 168.853 104.73Z" fill="#011314"/>
<path d="M163.891 109.143C163.168 108.631 162.988 107.655 163.461 106.951C163.934 106.248 164.895 106.115 165.618 106.627C166.341 107.14 166.521 108.115 166.048 108.819C165.575 109.523 164.614 109.655 163.891 109.143Z" fill="#011314"/>
<path d="M158.993 113.58C158.27 113.068 158.09 112.092 158.563 111.389C159.036 110.685 159.998 110.552 160.721 111.064C161.444 111.577 161.624 112.552 161.151 113.256C160.678 113.96 159.716 114.093 158.993 113.58Z" fill="#011314"/>
<path d="M154.032 117.993C153.309 117.481 153.128 116.505 153.602 115.801C154.075 115.098 155.036 114.965 155.759 115.477C156.482 115.989 156.662 116.965 156.189 117.669C155.716 118.372 154.755 118.505 154.032 117.993Z" fill="#011314"/>
<path d="M149.09 122.45C148.367 121.938 148.187 120.962 148.66 120.258C149.133 119.554 150.095 119.422 150.818 119.934C151.541 120.446 151.721 121.422 151.248 122.126C150.775 122.829 149.814 122.962 149.09 122.45Z" fill="#011314"/>
<path d="M144.172 126.843C143.449 126.33 143.269 125.355 143.742 124.651C144.215 123.947 145.177 123.814 145.9 124.327C146.623 124.839 146.803 125.815 146.33 126.518C145.857 127.222 144.86 127.382 144.172 126.843Z" fill="#011314"/>
<path d="M139.23 131.3C138.507 130.788 138.327 129.812 138.8 129.108C139.273 128.405 140.235 128.272 140.958 128.784C141.681 129.296 141.861 130.272 141.388 130.976C140.915 131.679 139.954 131.812 139.23 131.3Z" fill="#011314"/>
<path d="M185.55 98.6875C184.826 98.1752 184.646 97.1994 185.12 96.4958C185.593 95.7922 186.554 95.6593 187.277 96.1716C188 96.6838 188.18 97.6597 187.707 98.3633C187.234 99.0669 186.273 99.1997 185.55 98.6875Z" fill="#011314"/>
<path d="M180.588 103.1C179.865 102.588 179.685 101.612 180.158 100.909C180.631 100.205 181.593 100.072 182.316 100.584C183.039 101.097 183.219 102.072 182.746 102.776C182.273 103.48 181.312 103.613 180.588 103.1Z" fill="#011314"/>
<path d="M175.69 107.537C174.967 107.025 174.787 106.049 175.26 105.346C175.733 104.642 176.695 104.509 177.418 105.021C178.141 105.534 178.321 106.509 177.848 107.213C177.375 107.917 176.378 108.076 175.69 107.537Z" fill="#011314"/>
<path d="M170.728 111.95C170.005 111.438 169.825 110.462 170.298 109.759C170.771 109.055 171.733 108.922 172.456 109.434C173.179 109.947 173.359 110.923 172.886 111.626C172.413 112.33 171.452 112.463 170.728 111.95Z" fill="#011314"/>
<path d="M165.787 116.407C165.064 115.895 164.884 114.919 165.357 114.216C165.83 113.512 166.791 113.379 167.514 113.891C168.238 114.403 168.418 115.379 167.945 116.083C167.471 116.786 166.51 116.919 165.787 116.407Z" fill="#011314"/>
<path d="M160.825 120.82C160.102 120.308 159.922 119.332 160.395 118.628C160.868 117.925 161.83 117.792 162.553 118.304C163.276 118.816 163.456 119.792 162.983 120.496C162.51 121.199 161.549 121.332 160.825 120.82Z" fill="#011314"/>
<path d="M155.928 125.257C155.204 124.745 155.024 123.769 155.497 123.065C155.971 122.362 156.932 122.229 157.655 122.741C158.378 123.253 158.558 124.229 158.085 124.933C157.612 125.637 156.651 125.769 155.928 125.257Z" fill="#011314"/>
<path d="M150.965 129.67C150.242 129.158 150.062 128.182 150.535 127.478C151.009 126.775 151.97 126.642 152.693 127.154C153.416 127.666 153.596 128.642 153.123 129.346C152.65 130.049 151.689 130.182 150.965 129.67Z" fill="#011314"/>
<path d="M146.024 134.127C145.301 133.615 145.121 132.639 145.594 131.935C146.067 131.231 147.028 131.099 147.752 131.611C148.475 132.123 148.655 133.099 148.182 133.803C147.709 134.506 146.747 134.639 146.024 134.127Z" fill="#011314"/>
<path d="M141.107 138.52C140.383 138.007 140.203 137.032 140.676 136.328C141.15 135.624 142.111 135.492 142.834 136.004C143.557 136.516 143.737 137.492 143.264 138.195C142.791 138.899 141.794 139.059 141.107 138.52Z" fill="#011314"/>
<path d="M192.523 101.327C191.8 100.815 191.62 99.8389 192.093 99.1352C192.567 98.4316 193.528 98.2988 194.251 98.811C194.974 99.3232 195.154 100.299 194.681 101.003C194.208 101.706 193.247 101.839 192.523 101.327Z" fill="#011314"/>
<path d="M187.606 105.72C186.883 105.208 186.703 104.232 187.176 103.528C187.649 102.825 188.61 102.692 189.333 103.204C190.056 103.716 190.237 104.692 189.763 105.396C189.29 106.099 188.293 106.259 187.606 105.72Z" fill="#011314"/>
<path d="M182.664 110.177C181.941 109.665 181.761 108.689 182.234 107.985C182.707 107.282 183.668 107.149 184.392 107.661C185.115 108.173 185.295 109.149 184.822 109.853C184.349 110.556 183.387 110.689 182.664 110.177Z" fill="#011314"/>
<path d="M177.703 114.59C176.979 114.077 176.799 113.102 177.272 112.398C177.746 111.694 178.707 111.562 179.43 112.074C180.153 112.586 180.333 113.562 179.86 114.265C179.387 114.969 178.426 115.102 177.703 114.59Z" fill="#011314"/>
<path d="M172.761 119.046C172.038 118.534 171.858 117.558 172.331 116.855C172.804 116.151 173.766 116.018 174.489 116.531C175.212 117.043 175.392 118.019 174.919 118.722C174.446 119.426 173.484 119.559 172.761 119.046Z" fill="#011314"/>
<path d="M167.844 123.439C167.121 122.927 166.94 121.951 167.414 121.248C167.887 120.544 168.848 120.411 169.571 120.923C170.294 121.436 170.474 122.412 170.001 123.115C169.528 123.819 168.567 123.952 167.844 123.439Z" fill="#011314"/>
<path d="M162.901 127.897C162.178 127.384 161.998 126.408 162.471 125.705C162.944 125.001 163.906 124.868 164.629 125.381C165.352 125.893 165.532 126.869 165.059 127.572C164.586 128.276 163.624 128.409 162.901 127.897Z" fill="#011314"/>
<path d="M157.94 132.309C157.217 131.797 157.036 130.821 157.51 130.117C157.983 129.414 158.944 129.281 159.667 129.793C160.39 130.305 160.57 131.281 160.097 131.985C159.624 132.689 158.663 132.821 157.94 132.309Z" fill="#011314"/>
<path d="M153.042 136.746C152.319 136.234 152.139 135.258 152.612 134.554C153.085 133.851 154.047 133.718 154.77 134.23C155.493 134.742 155.673 135.718 155.2 136.422C154.727 137.126 153.73 137.285 153.042 136.746Z" fill="#011314"/>
<path d="M148.08 141.159C147.357 140.647 147.177 139.671 147.65 138.968C148.123 138.264 149.085 138.131 149.808 138.643C150.531 139.155 150.711 140.131 150.238 140.835C149.765 141.538 148.804 141.671 148.08 141.159Z" fill="#011314"/>
<path d="M194.399 108.547C193.676 108.035 193.496 107.059 193.969 106.355C194.442 105.652 195.404 105.519 196.127 106.031C196.85 106.543 197.03 107.519 196.557 108.223C196.084 108.926 195.123 109.059 194.399 108.547Z" fill="#011314"/>
<path d="M189.438 112.96C188.715 112.448 188.534 111.472 189.008 110.768C189.481 110.064 190.442 109.932 191.165 110.444C191.888 110.956 192.068 111.932 191.595 112.636C191.122 113.339 190.161 113.472 189.438 112.96Z" fill="#011314"/>
<path d="M184.54 117.397C183.817 116.885 183.636 115.909 184.11 115.205C184.583 114.502 185.544 114.369 186.267 114.881C186.99 115.393 187.17 116.369 186.697 117.073C186.224 117.776 185.227 117.936 184.54 117.397Z" fill="#011314"/>
<path d="M179.579 121.81C178.856 121.298 178.676 120.322 179.149 119.618C179.622 118.914 180.583 118.782 181.306 119.294C182.029 119.806 182.209 120.782 181.736 121.486C181.263 122.19 180.33 122.36 179.579 121.81Z" fill="#011314"/>
<path d="M174.636 126.267C173.913 125.754 173.733 124.778 174.206 124.075C174.679 123.371 175.641 123.238 176.364 123.751C177.087 124.263 177.267 125.239 176.794 125.942C176.321 126.646 175.36 126.779 174.636 126.267Z" fill="#011314"/>
<path d="M169.717 130.662C168.995 130.149 168.815 129.172 169.288 128.468C169.761 127.764 170.721 127.632 171.444 128.145C172.166 128.658 172.346 129.634 171.873 130.338C171.428 131.08 170.432 131.239 169.717 130.662Z" fill="#011314"/>
<path d="M164.777 135.117C164.054 134.604 163.874 133.628 164.347 132.925C164.821 132.221 165.782 132.088 166.505 132.601C167.228 133.113 167.408 134.089 166.935 134.792C166.462 135.496 165.501 135.629 164.777 135.117Z" fill="#011314"/>
<path d="M159.836 139.574C159.112 139.061 158.932 138.086 159.405 137.382C159.879 136.678 160.84 136.545 161.563 137.058C162.286 137.57 162.466 138.546 161.993 139.249C161.52 139.953 160.559 140.086 159.836 139.574Z" fill="#011314"/>
<path d="M154.874 143.986C154.151 143.474 153.971 142.498 154.444 141.794C154.917 141.091 155.878 140.958 156.601 141.47C157.325 141.982 157.505 142.958 157.031 143.662C156.558 144.365 155.597 144.498 154.874 143.986Z" fill="#011314"/>
<path d="M149.976 148.423C149.253 147.911 149.073 146.935 149.546 146.231C150.019 145.528 150.98 145.395 151.703 145.907C152.426 146.419 152.607 147.395 152.133 148.099C151.66 148.803 150.663 148.962 149.976 148.423Z" fill="#011314"/>
<path d="M201.374 111.186C200.651 110.674 200.471 109.698 200.944 108.995C201.417 108.291 202.378 108.158 203.101 108.67C203.824 109.183 204.005 110.158 203.531 110.862C203.058 111.566 202.097 111.698 201.374 111.186Z" fill="#011314"/>
<path d="M196.476 115.623C195.753 115.111 195.573 114.135 196.046 113.432C196.519 112.728 197.48 112.595 198.203 113.107C198.927 113.62 199.107 114.595 198.634 115.299C198.16 116.003 197.163 116.162 196.476 115.623Z" fill="#011314"/>
<path d="M191.514 120.036C190.791 119.524 190.611 118.548 191.084 117.844C191.557 117.141 192.519 117.008 193.242 117.52C193.965 118.033 194.145 119.008 193.672 119.712C193.199 120.416 192.238 120.548 191.514 120.036Z" fill="#011314"/>
<path d="M186.572 124.493C185.849 123.981 185.669 123.005 186.142 122.301C186.615 121.598 187.576 121.465 188.3 121.977C189.023 122.489 189.203 123.465 188.73 124.169C188.257 124.873 187.295 125.005 186.572 124.493Z" fill="#011314"/>
<path d="M181.655 128.886C180.932 128.374 180.751 127.398 181.225 126.694C181.698 125.991 182.659 125.858 183.382 126.37C184.105 126.882 184.285 127.858 183.812 128.562C183.339 129.265 182.342 129.425 181.655 128.886Z" fill="#011314"/>
<path d="M176.713 133.343C175.99 132.831 175.81 131.855 176.283 131.151C176.756 130.447 177.717 130.315 178.441 130.827C179.164 131.339 179.344 132.315 178.871 133.019C178.397 133.722 177.436 133.855 176.713 133.343Z" fill="#011314"/>
<path d="M166.81 142.213C166.087 141.701 165.906 140.725 166.38 140.021C166.853 139.317 167.814 139.185 168.537 139.697C169.26 140.209 169.44 141.185 168.967 141.889C168.494 142.592 167.533 142.725 166.81 142.213Z" fill="#011314"/>
<path d="M161.892 146.606C161.169 146.094 160.989 145.118 161.462 144.414C161.935 143.71 162.896 143.578 163.62 144.09C164.343 144.602 164.523 145.578 164.05 146.282C163.577 146.985 162.58 147.145 161.892 146.606Z" fill="#011314"/>
<path d="M156.95 151.063C156.227 150.55 156.047 149.574 156.52 148.871C156.993 148.167 157.954 148.034 158.678 148.547C159.401 149.059 159.581 150.035 159.108 150.738C158.635 151.442 157.673 151.575 156.95 151.063Z" fill="#011314"/>
<path d="M116.368 116.137C115.645 115.625 115.465 114.649 115.938 113.946C116.411 113.242 117.372 113.109 118.096 113.621C118.819 114.134 118.999 115.11 118.526 115.813C118.053 116.517 117.091 116.65 116.368 116.137Z" fill="#011314"/>
<path d="M111.471 120.574C110.747 120.062 110.567 119.086 111.041 118.383C111.514 117.679 112.475 117.546 113.198 118.058C113.921 118.571 114.101 119.547 113.628 120.25C113.155 120.954 112.158 121.113 111.471 120.574Z" fill="#011314"/>
<path d="M106.509 124.987C105.786 124.475 105.606 123.499 106.079 122.796C106.552 122.092 107.514 121.959 108.237 122.471C108.96 122.984 109.14 123.959 108.667 124.663C108.194 125.367 107.232 125.5 106.509 124.987Z" fill="#011314"/>
<path d="M101.568 129.444C100.845 128.932 100.664 127.956 101.138 127.252C101.611 126.549 102.572 126.416 103.295 126.928C104.018 127.44 104.198 128.416 103.725 129.12C103.252 129.823 102.291 129.956 101.568 129.444Z" fill="#011314"/>
<path d="M96.6498 133.837C95.9266 133.325 95.7465 132.349 96.2196 131.645C96.6928 130.942 97.654 130.809 98.3771 131.321C99.1003 131.833 99.2804 132.809 98.8073 133.513C98.3341 134.217 97.3372 134.376 96.6498 133.837Z" fill="#011314"/>
<path d="M91.7077 138.294C90.9846 137.782 90.8045 136.806 91.2776 136.102C91.7507 135.399 92.7119 135.266 93.4351 135.778C94.1583 136.29 94.3384 137.266 93.8652 137.97C93.3921 138.673 92.4309 138.806 91.7077 138.294Z" fill="#011314"/>
<path d="M86.7464 142.707C86.0232 142.195 85.8432 141.219 86.3163 140.515C86.7895 139.812 87.7507 139.679 88.4738 140.191C89.197 140.703 89.3771 141.679 88.904 142.383C88.4309 143.086 87.4696 143.219 86.7464 142.707Z" fill="#011314"/>
<path d="M81.8484 147.144C81.1252 146.632 80.9451 145.656 81.4183 144.952C81.8914 144.249 82.8526 144.116 83.5758 144.628C84.299 145.14 84.4791 146.116 84.0059 146.82C83.5328 147.523 82.5359 147.683 81.8484 147.144Z" fill="#011314"/>
<path d="M76.8864 151.557C76.1633 151.044 75.9832 150.069 76.4563 149.365C76.9295 148.661 77.8907 148.529 78.6139 149.041C79.3371 149.553 79.5171 150.529 79.044 151.232C78.5708 151.936 77.6096 152.069 76.8864 151.557Z" fill="#011314"/>
<path d="M71.945 156.014C71.2219 155.502 71.0418 154.526 71.515 153.822C71.9881 153.119 72.9493 152.986 73.6724 153.498C74.3956 154.01 74.5757 154.986 74.1026 155.69C73.6295 156.393 72.6682 156.526 71.945 156.014Z" fill="#011314"/>
<path d="M118.243 123.36C117.521 122.847 117.341 121.87 117.814 121.166C118.286 120.462 119.247 120.33 119.969 120.842C120.692 121.355 120.871 122.332 120.399 123.036C119.954 123.777 118.994 123.91 118.243 123.36Z" fill="#011314"/>
<path d="M113.303 127.814C112.58 127.302 112.4 126.326 112.873 125.622C113.346 124.919 114.307 124.786 115.03 125.298C115.753 125.81 115.933 126.786 115.46 127.49C114.987 128.194 114.026 128.326 113.303 127.814Z" fill="#011314"/>
<path d="M108.405 132.251C107.682 131.739 107.502 130.763 107.975 130.06C108.448 129.356 109.409 129.223 110.132 129.736C110.855 130.248 111.035 131.224 110.562 131.927C110.089 132.631 109.092 132.79 108.405 132.251Z" fill="#011314"/>
<path d="M103.443 136.664C102.72 136.152 102.54 135.176 103.013 134.472C103.486 133.769 104.447 133.636 105.17 134.148C105.893 134.66 106.073 135.636 105.6 136.34C105.127 137.043 104.166 137.176 103.443 136.664Z" fill="#011314"/>
<path d="M98.5015 141.121C97.7783 140.609 97.5983 139.633 98.0714 138.93C98.5446 138.226 99.5058 138.093 100.229 138.605C100.952 139.118 101.132 140.093 100.659 140.797C100.186 141.501 99.2247 141.633 98.5015 141.121Z" fill="#011314"/>
<path d="M93.584 145.514C92.8608 145.002 92.6807 144.026 93.1539 143.322C93.627 142.618 94.5882 142.486 95.3114 142.998C96.0346 143.51 96.2146 144.486 95.7415 145.19C95.2683 145.893 94.2714 146.053 93.584 145.514Z" fill="#011314"/>
<path d="M88.6415 149.971C87.9183 149.459 87.7382 148.483 88.2114 147.779C88.6845 147.076 89.6457 146.943 90.3689 147.455C91.0921 147.967 91.2721 148.943 90.799 149.647C90.3259 150.35 89.3647 150.483 88.6415 149.971Z" fill="#011314"/>
<path d="M83.6802 154.384C82.9571 153.872 82.777 152.896 83.2501 152.192C83.7232 151.489 84.6844 151.356 85.4076 151.868C86.1308 152.38 86.3109 153.356 85.8377 154.06C85.3646 154.763 84.4034 154.896 83.6802 154.384Z" fill="#011314"/>
<path d="M78.7827 158.821C78.0595 158.309 77.8794 157.333 78.3525 156.629C78.8257 155.926 79.7869 155.793 80.51 156.305C81.2332 156.817 81.4133 157.793 80.9402 158.497C80.467 159.2 79.4701 159.36 78.7827 158.821Z" fill="#011314"/>
<path d="M73.8211 163.234C73.0979 162.721 72.9178 161.745 73.391 161.042C73.8641 160.338 74.8253 160.205 75.5485 160.718C76.2716 161.23 76.4517 162.206 75.9786 162.909C75.5055 163.613 74.5443 163.746 73.8211 163.234Z" fill="#011314"/>
<path d="M125.239 126.041C124.515 125.529 124.335 124.553 124.808 123.849C125.282 123.145 126.243 123.013 126.966 123.525C127.689 124.037 127.869 125.013 127.396 125.717C126.923 126.42 125.962 126.553 125.239 126.041Z" fill="#011314"/>
<path d="M120.321 130.434C119.598 129.922 119.418 128.946 119.891 128.242C120.364 127.538 121.325 127.406 122.048 127.918C122.772 128.43 122.952 129.406 122.479 130.11C122.005 130.813 121.009 130.973 120.321 130.434Z" fill="#011314"/>
<path d="M115.379 134.891C114.655 134.378 114.475 133.402 114.949 132.699C115.422 131.995 116.383 131.862 117.106 132.375C117.829 132.887 118.009 133.863 117.536 134.566C117.063 135.27 116.102 135.403 115.379 134.891Z" fill="#011314"/>
<path d="M110.417 139.304C109.694 138.791 109.514 137.816 109.987 137.112C110.46 136.408 111.422 136.275 112.145 136.788C112.868 137.3 113.048 138.276 112.575 138.979C112.102 139.683 111.141 139.816 110.417 139.304Z" fill="#011314"/>
<path d="M105.52 143.741C104.797 143.228 104.617 142.253 105.09 141.549C105.563 140.845 106.524 140.712 107.247 141.225C107.97 141.737 108.15 142.713 107.677 143.416C107.204 144.12 106.207 144.28 105.52 143.741Z" fill="#011314"/>
<path d="M100.558 148.153C99.8346 147.641 99.6545 146.665 100.128 145.962C100.601 145.258 101.562 145.125 102.285 145.637C103.008 146.15 103.188 147.125 102.715 147.829C102.242 148.533 101.281 148.665 100.558 148.153Z" fill="#011314"/>
<path d="M95.6162 152.61C94.893 152.098 94.7129 151.122 95.186 150.419C95.6592 149.715 96.6204 149.582 97.3435 150.094C98.0667 150.607 98.2468 151.582 97.7737 152.286C97.3005 152.99 96.3393 153.123 95.6162 152.61Z" fill="#011314"/>
<path d="M90.6985 157.003C89.9753 156.491 89.7952 155.515 90.2684 154.811C90.7415 154.108 91.7028 153.975 92.4259 154.487C93.1491 154.999 93.3292 155.975 92.856 156.679C92.3829 157.382 91.386 157.542 90.6985 157.003Z" fill="#011314"/>
<path d="M85.7568 161.46C85.0337 160.948 84.8536 159.972 85.3267 159.268C85.7999 158.565 86.7611 158.432 87.4842 158.944C88.2074 159.456 88.3875 160.432 87.9144 161.136C87.4413 161.839 86.48 161.972 85.7568 161.46Z" fill="#011314"/>
<path d="M80.7948 165.873C80.0717 165.361 79.8916 164.385 80.3647 163.681C80.8378 162.978 81.799 162.845 82.5222 163.357C83.2454 163.869 83.4255 164.845 82.9523 165.549C82.4792 166.253 81.518 166.385 80.7948 165.873Z" fill="#011314"/>
<path d="M127.114 133.261C126.391 132.749 126.21 131.773 126.684 131.069C127.157 130.366 128.118 130.233 128.841 130.745C129.564 131.257 129.744 132.233 129.271 132.937C128.798 133.64 127.837 133.773 127.114 133.261Z" fill="#011314"/>
<path d="M122.152 137.674C121.429 137.161 121.249 136.186 121.722 135.482C122.195 134.778 123.156 134.646 123.879 135.158C124.603 135.67 124.783 136.646 124.31 137.349C123.836 138.053 122.875 138.186 122.152 137.674Z" fill="#011314"/>
<path d="M117.255 142.111C116.532 141.599 116.352 140.623 116.825 139.919C117.298 139.215 118.259 139.083 118.982 139.595C119.706 140.107 119.886 141.083 119.412 141.787C118.939 142.49 117.942 142.65 117.255 142.111Z" fill="#011314"/>
<path d="M112.293 146.523C111.57 146.011 111.39 145.035 111.863 144.332C112.336 143.628 113.297 143.495 114.02 144.007C114.743 144.52 114.923 145.495 114.45 146.199C113.977 146.903 113.016 147.036 112.293 146.523Z" fill="#011314"/>
<path d="M107.351 150.98C106.628 150.468 106.448 149.492 106.921 148.789C107.394 148.085 108.355 147.952 109.079 148.464C109.802 148.977 109.982 149.953 109.509 150.656C109.036 151.36 108.074 151.493 107.351 150.98Z" fill="#011314"/>
<path d="M102.434 155.374C101.71 154.861 101.53 153.886 102.003 153.182C102.477 152.478 103.438 152.345 104.161 152.858C104.884 153.37 105.064 154.346 104.591 155.049C104.118 155.753 103.121 155.913 102.434 155.374Z" fill="#011314"/>
<path d="M97.492 159.83C96.7688 159.318 96.5887 158.342 97.0618 157.639C97.535 156.935 98.4962 156.802 99.2193 157.314C99.9425 157.827 100.123 158.803 99.6494 159.506C99.1763 160.21 98.2151 160.343 97.492 159.83Z" fill="#011314"/>
<path d="M92.5296 164.244C91.8066 163.731 91.6266 162.755 92.0997 162.052C92.5727 161.348 93.5338 161.215 94.2568 161.728C94.9798 162.24 95.1599 163.216 94.6868 163.92C94.2137 164.623 93.2809 164.793 92.5296 164.244Z" fill="#011314"/>
<path d="M87.6327 168.68C86.9095 168.168 86.7294 167.192 87.2026 166.488C87.6757 165.785 88.6369 165.652 89.3601 166.164C90.0833 166.676 90.2634 167.652 89.7902 168.356C89.3171 169.06 88.3202 169.219 87.6327 168.68Z" fill="#011314"/>
<path d="M82.6692 173.095C81.9467 172.582 81.767 171.606 82.2398 170.902C82.7126 170.198 83.673 170.065 84.3954 170.578C85.1179 171.091 85.2976 172.068 84.8247 172.772C84.3802 173.513 83.4198 173.646 82.6692 173.095Z" fill="#011314"/>
<path d="M134.088 135.9C133.365 135.388 133.185 134.412 133.658 133.708C134.131 133.005 135.093 132.872 135.816 133.384C136.539 133.896 136.719 134.872 136.246 135.576C135.773 136.28 134.812 136.412 134.088 135.9Z" fill="#011314"/>
<path d="M129.19 140.337C128.467 139.825 128.287 138.849 128.76 138.146C129.233 137.442 130.195 137.309 130.918 137.821C131.641 138.334 131.821 139.31 131.348 140.013C130.875 140.717 129.878 140.876 129.19 140.337Z" fill="#011314"/>
<path d="M124.229 144.75C123.506 144.238 123.325 143.262 123.799 142.559C124.272 141.855 125.233 141.722 125.956 142.234C126.679 142.747 126.859 143.722 126.386 144.426C125.913 145.13 124.952 145.263 124.229 144.75Z" fill="#011314"/>
<path d="M119.287 149.207C118.564 148.695 118.384 147.719 118.857 147.015C119.33 146.312 120.291 146.179 121.015 146.691C121.738 147.203 121.918 148.179 121.445 148.883C120.971 149.586 120.01 149.719 119.287 149.207Z" fill="#011314"/>
<path d="M114.369 153.6C113.646 153.088 113.466 152.112 113.939 151.408C114.413 150.704 115.374 150.572 116.097 151.084C116.82 151.596 117 152.572 116.527 153.276C116.054 153.979 115.057 154.139 114.369 153.6Z" fill="#011314"/>
<path d="M109.428 158.057C108.705 157.545 108.525 156.569 108.998 155.865C109.471 155.161 110.432 155.029 111.155 155.541C111.878 156.053 112.058 157.029 111.585 157.733C111.112 158.436 110.151 158.569 109.428 158.057Z" fill="#011314"/>
<path d="M104.466 162.47C103.743 161.957 103.562 160.982 104.036 160.278C104.509 159.574 105.47 159.442 106.193 159.954C106.916 160.466 107.096 161.442 106.623 162.145C106.15 162.849 105.189 162.982 104.466 162.47Z" fill="#011314"/>
<path d="M99.5682 166.907C98.845 166.395 98.665 165.419 99.1381 164.715C99.6113 164.012 100.572 163.879 101.296 164.391C102.019 164.903 102.199 165.879 101.726 166.583C101.253 167.286 100.256 167.446 99.5682 166.907Z" fill="#011314"/>
<path d="M94.6066 171.32C93.8835 170.807 93.7034 169.831 94.1765 169.128C94.6496 168.424 95.6108 168.291 96.334 168.804C97.0572 169.316 97.2373 170.292 96.7641 170.995C96.291 171.699 95.3298 171.832 94.6066 171.32Z" fill="#011314"/>
<path d="M89.6645 175.777C88.9413 175.265 88.7612 174.289 89.2343 173.585C89.7074 172.882 90.6687 172.749 91.3919 173.261C92.115 173.773 92.2951 174.749 91.822 175.452C91.3488 176.156 90.3876 176.289 89.6645 175.777Z" fill="#011314"/>
<path d="M135.964 143.12C135.241 142.608 135.06 141.632 135.534 140.929C136.007 140.225 136.968 140.092 137.691 140.604C138.414 141.117 138.594 142.093 138.121 142.796C137.648 143.5 136.687 143.633 135.964 143.12Z" fill="#011314"/>
<path d="M131.022 147.577C130.299 147.065 130.119 146.089 130.592 145.385C131.065 144.682 132.026 144.549 132.75 145.061C133.473 145.573 133.653 146.549 133.18 147.253C132.707 147.956 131.745 148.089 131.022 147.577Z" fill="#011314"/>
<path d="M126.105 151.97C125.381 151.458 125.201 150.482 125.674 149.778C126.148 149.075 127.109 148.942 127.832 149.454C128.555 149.966 128.735 150.942 128.262 151.646C127.789 152.349 126.792 152.509 126.105 151.97Z" fill="#011314"/>
<path d="M121.163 156.427C120.44 155.915 120.26 154.939 120.733 154.235C121.206 153.532 122.167 153.399 122.89 153.911C123.613 154.423 123.794 155.399 123.32 156.103C122.847 156.806 121.886 156.939 121.163 156.427Z" fill="#011314"/>
<path d="M116.201 160.84C115.478 160.328 115.298 159.352 115.771 158.648C116.244 157.945 117.205 157.812 117.928 158.324C118.651 158.836 118.832 159.812 118.358 160.516C117.885 161.219 116.924 161.352 116.201 160.84Z" fill="#011314"/>
<path d="M111.303 165.277C110.58 164.765 110.4 163.789 110.873 163.085C111.346 162.382 112.307 162.249 113.031 162.761C113.754 163.273 113.934 164.249 113.461 164.953C112.988 165.656 111.991 165.816 111.303 165.277Z" fill="#011314"/>
<path d="M106.342 169.69C105.618 169.177 105.438 168.201 105.912 167.498C106.385 166.794 107.346 166.661 108.069 167.174C108.792 167.686 108.972 168.662 108.499 169.365C108.026 170.069 107.065 170.202 106.342 169.69Z" fill="#011314"/>
<path d="M101.4 174.147C100.677 173.635 100.497 172.659 100.97 171.955C101.443 171.252 102.404 171.119 103.127 171.631C103.851 172.143 104.031 173.119 103.557 173.823C103.084 174.526 102.123 174.659 101.4 174.147Z" fill="#011314"/>
<path d="M96.482 178.54C95.7588 178.028 95.5787 177.052 96.0518 176.348C96.525 175.644 97.4862 175.512 98.2094 176.024C98.9326 176.536 99.1126 177.512 98.6395 178.216C98.1663 178.919 97.1694 179.079 96.482 178.54Z" fill="#011314"/>
<path d="M91.5404 182.997C90.8172 182.484 90.6372 181.509 91.1103 180.805C91.5834 180.101 92.5446 179.968 93.2678 180.481C93.991 180.993 94.1711 181.969 93.6979 182.672C93.2248 183.376 92.2635 183.509 91.5404 182.997Z" fill="#011314"/>
<path d="M142.938 145.76C142.215 145.247 142.035 144.272 142.508 143.568C142.981 142.864 143.942 142.732 144.665 143.244C145.389 143.756 145.569 144.732 145.096 145.436C144.622 146.139 143.661 146.272 142.938 145.76Z" fill="#011314"/>
<path d="M138.04 150.197C137.317 149.685 137.137 148.709 137.61 148.005C138.083 147.301 139.045 147.169 139.768 147.681C140.491 148.193 140.671 149.169 140.198 149.873C139.725 150.576 138.728 150.736 138.04 150.197Z" fill="#011314"/>
<path d="M133.079 154.609C132.356 154.097 132.176 153.121 132.649 152.418C133.122 151.714 134.083 151.581 134.806 152.093C135.529 152.606 135.709 153.581 135.236 154.285C134.763 154.989 133.802 155.122 133.079 154.609Z" fill="#011314"/>
<path d="M128.137 159.067C127.414 158.554 127.234 157.579 127.707 156.875C128.18 156.171 129.141 156.038 129.864 156.551C130.588 157.063 130.768 158.039 130.295 158.742C129.821 159.446 128.86 159.579 128.137 159.067Z" fill="#011314"/>
<path d="M123.219 163.46C122.496 162.948 122.316 161.972 122.789 161.268C123.262 160.564 124.223 160.431 124.946 160.944C125.669 161.456 125.849 162.432 125.376 163.136C124.903 163.84 123.934 164.036 123.219 163.46Z" fill="#011314"/>
<path d="M118.278 167.916C117.554 167.404 117.374 166.428 117.847 165.724C118.321 165.021 119.282 164.888 120.005 165.4C120.728 165.912 120.908 166.888 120.435 167.592C119.962 168.295 119.001 168.428 118.278 167.916Z" fill="#011314"/>
<path d="M113.314 172.332C112.592 171.819 112.412 170.842 112.885 170.138C113.357 169.434 114.318 169.301 115.04 169.814C115.763 170.327 115.942 171.304 115.47 172.008C115.025 172.749 114.065 172.882 113.314 172.332Z" fill="#011314"/>
<path d="M108.418 176.766C107.695 176.254 107.515 175.278 107.988 174.575C108.461 173.871 109.422 173.738 110.146 174.25C110.869 174.763 111.049 175.738 110.576 176.442C110.103 177.146 109.106 177.305 108.418 176.766Z" fill="#011314"/>
<path d="M103.476 181.223C102.753 180.711 102.573 179.735 103.046 179.031C103.519 178.327 104.48 178.195 105.204 178.707C105.927 179.219 106.107 180.195 105.634 180.899C105.161 181.602 104.199 181.735 103.476 181.223Z" fill="#011314"/>
<path d="M98.5146 185.636C97.7914 185.124 97.6113 184.148 98.0845 183.444C98.5576 182.741 99.5188 182.608 100.242 183.12C100.965 183.632 101.145 184.608 100.672 185.312C100.199 186.016 99.2378 186.148 98.5146 185.636Z" fill="#011314"/>
<path d="M144.834 153.024C144.111 152.511 143.931 151.535 144.404 150.832C144.877 150.128 145.838 149.995 146.561 150.508C147.284 151.02 147.465 151.996 146.991 152.699C146.518 153.403 145.557 153.536 144.834 153.024Z" fill="#011314"/>
<path d="M139.872 157.437C139.149 156.924 138.969 155.948 139.442 155.245C139.915 154.541 140.876 154.408 141.6 154.921C142.323 155.433 142.503 156.409 142.03 157.113C141.557 157.816 140.595 157.949 139.872 157.437Z" fill="#011314"/>
<path d="M130.013 166.286C129.289 165.774 129.109 164.798 129.583 164.095C130.056 163.391 131.017 163.258 131.74 163.77C132.463 164.283 132.643 165.259 132.17 165.962C131.697 166.666 130.736 166.799 130.013 166.286Z" fill="#011314"/>
<path d="M125.071 170.744C124.348 170.231 124.168 169.256 124.641 168.552C125.114 167.848 126.075 167.715 126.798 168.228C127.521 168.74 127.702 169.716 127.228 170.419C126.755 171.123 125.794 171.256 125.071 170.744Z" fill="#011314"/>
<path d="M120.153 175.136C119.43 174.624 119.25 173.648 119.723 172.944C120.196 172.241 121.158 172.108 121.881 172.62C122.604 173.132 122.784 174.108 122.311 174.812C121.838 175.516 120.841 175.675 120.153 175.136Z" fill="#011314"/>
<path d="M115.211 179.593C114.488 179.081 114.308 178.105 114.781 177.402C115.254 176.698 116.215 176.565 116.939 177.077C117.662 177.59 117.842 178.566 117.369 179.269C116.896 179.973 115.934 180.106 115.211 179.593Z" fill="#011314"/>
<path d="M110.25 184.006C109.527 183.494 109.346 182.518 109.82 181.814C110.293 181.11 111.254 180.978 111.977 181.49C112.7 182.002 112.88 182.978 112.407 183.682C111.934 184.385 110.973 184.518 110.25 184.006Z" fill="#011314"/>
<path d="M105.352 188.443C104.629 187.93 104.449 186.955 104.922 186.251C105.395 185.547 106.357 185.414 107.08 185.927C107.803 186.439 107.983 187.415 107.51 188.118C107.037 188.822 106.04 188.982 105.352 188.443Z" fill="#011314"/>
<path d="M100.39 192.856C99.6673 192.344 99.4872 191.368 99.9603 190.664C100.433 189.961 101.395 189.828 102.118 190.34C102.841 190.852 103.021 191.828 102.548 192.532C102.075 193.235 101.114 193.368 100.39 192.856Z" fill="#011314"/>
<path d="M146.89 160.056C146.167 159.544 145.986 158.568 146.46 157.864C146.933 157.161 147.894 157.028 148.617 157.54C149.34 158.052 149.52 159.028 149.047 159.732C148.574 160.435 147.613 160.568 146.89 160.056Z" fill="#011314"/>
<path d="M141.948 164.513C141.225 164.001 141.045 163.025 141.518 162.321C141.991 161.618 142.953 161.485 143.676 161.997C144.399 162.509 144.579 163.485 144.106 164.189C143.633 164.892 142.672 165.025 141.948 164.513Z" fill="#011314"/>
<path d="M136.986 168.926C136.263 168.414 136.083 167.438 136.556 166.734C137.029 166.031 137.991 165.898 138.714 166.41C139.437 166.922 139.617 167.898 139.144 168.602C138.671 169.305 137.71 169.438 136.986 168.926Z" fill="#011314"/>
<path d="M132.089 173.363C131.366 172.851 131.186 171.875 131.659 171.171C132.132 170.467 133.093 170.335 133.816 170.847C134.539 171.359 134.72 172.335 134.246 173.039C133.773 173.742 132.776 173.902 132.089 173.363Z" fill="#011314"/>
<path d="M122.186 182.233C121.463 181.72 121.283 180.744 121.756 180.041C122.229 179.337 123.19 179.204 123.913 179.717C124.636 180.229 124.816 181.205 124.343 181.908C123.87 182.612 122.909 182.745 122.186 182.233Z" fill="#011314"/>
<path d="M117.268 186.626C116.545 186.113 116.365 185.137 116.838 184.434C117.311 183.73 118.272 183.597 118.995 184.11C119.719 184.622 119.899 185.598 119.425 186.301C118.952 187.005 117.955 187.164 117.268 186.626Z" fill="#011314"/>
<path d="M112.326 191.082C111.603 190.57 111.423 189.594 111.896 188.891C112.369 188.187 113.33 188.054 114.054 188.566C114.777 189.079 114.957 190.055 114.484 190.758C114.011 191.462 113.049 191.595 112.326 191.082Z" fill="#011314"/>
<path d="M107.365 195.495C106.641 194.983 106.461 194.007 106.935 193.304C107.408 192.6 108.369 192.467 109.092 192.979C109.815 193.492 109.995 194.468 109.522 195.171C109.049 195.875 108.088 196.008 107.365 195.495Z" fill="#011314"/>
<path d="M126.102 27.2173C125.379 26.705 125.199 25.7292 125.672 25.0255C126.145 24.3219 127.106 24.1892 127.83 24.7014C128.553 25.2136 128.733 26.1894 128.26 26.893C127.787 27.5967 126.79 27.7562 126.102 27.2173Z" fill="#011314"/>
<path d="M121.16 31.6741C120.437 31.1619 120.257 30.1861 120.73 29.4825C121.204 28.7788 122.165 28.646 122.888 29.1582C123.611 29.6705 123.791 30.6464 123.318 31.35C122.845 32.0536 121.884 32.1864 121.16 31.6741Z" fill="#011314"/>
<path d="M116.198 36.0871C115.475 35.5749 115.295 34.599 115.768 33.8954C116.241 33.1918 117.203 33.0589 117.926 33.5711C118.649 34.0834 118.829 35.0593 118.356 35.7629C117.883 36.4665 116.922 36.5994 116.198 36.0871Z" fill="#011314"/>
<path d="M111.257 40.544C110.534 40.0318 110.353 39.0559 110.827 38.3523C111.3 37.6487 112.261 37.5159 112.984 38.0281C113.707 38.5404 113.887 39.5162 113.414 40.2198C112.941 40.9234 111.98 41.0562 111.257 40.544Z" fill="#011314"/>
<path d="M106.339 44.937C105.616 44.4248 105.436 43.4489 105.909 42.7453C106.382 42.0416 107.343 41.9088 108.067 42.421C108.79 42.9333 108.97 43.9092 108.497 44.6128C108.024 45.3164 107.062 45.4492 106.339 44.937Z" fill="#011314"/>
<path d="M101.397 49.394C100.674 48.8817 100.494 47.9058 100.967 47.2022C101.44 46.4986 102.401 46.3657 103.125 46.878C103.848 47.3902 104.028 48.3661 103.555 49.0697C103.082 49.7733 102.12 49.9062 101.397 49.394Z" fill="#011314"/>
<path d="M96.4359 53.8067C95.7127 53.2945 95.5326 52.3186 96.0058 51.615C96.4789 50.9114 97.4401 50.7785 98.1633 51.2907C98.8865 51.803 99.0666 52.7789 98.5934 53.4825C98.1203 54.1861 97.1591 54.319 96.4359 53.8067Z" fill="#011314"/>
<path d="M91.5384 58.2437C90.8152 57.7315 90.6351 56.7556 91.1082 56.052C91.5814 55.3484 92.5426 55.2155 93.2657 55.7278C93.9889 56.24 94.169 57.2159 93.6959 57.9195C93.2227 58.6231 92.2258 58.7826 91.5384 58.2437Z" fill="#011314"/>
<path d="M86.5763 62.6565C85.8531 62.1443 85.673 61.1685 86.1462 60.4649C86.6193 59.7613 87.5805 59.6284 88.3037 60.1407C89.0269 60.6529 89.207 61.6287 88.7338 62.3323C88.2607 63.0359 87.2994 63.1687 86.5763 62.6565Z" fill="#011314"/>
<path d="M81.6346 67.1136C80.9114 66.6013 80.7313 65.6255 81.2045 64.9219C81.6776 64.2183 82.6388 64.0854 83.362 64.5976C84.0851 65.1098 84.2652 66.0857 83.7921 66.7893C83.319 67.4929 82.3578 67.6258 81.6346 67.1136Z" fill="#011314"/>
<path d="M127.954 34.5013C127.231 33.989 127.051 33.0132 127.524 32.3095C127.997 31.6059 128.958 31.4731 129.681 31.9853C130.404 32.4975 130.585 33.4734 130.111 34.177C129.638 34.8807 128.677 35.0135 127.954 34.5013Z" fill="#011314"/>
<path d="M123.036 38.8942C122.313 38.3819 122.133 37.4061 122.606 36.7025C123.079 35.9988 124.041 35.866 124.764 36.3782C125.487 36.8904 125.667 37.8663 125.194 38.5699C124.721 39.2735 123.724 39.433 123.036 38.8942Z" fill="#011314"/>
<path d="M118.094 43.3511C117.371 42.8389 117.191 41.863 117.664 41.1594C118.137 40.4557 119.099 40.3229 119.822 40.8351C120.545 41.3474 120.725 42.3233 120.252 43.0269C119.779 43.7305 118.817 43.8634 118.094 43.3511Z" fill="#011314"/>
<path d="M113.132 47.7641C112.409 47.2518 112.229 46.276 112.702 45.5724C113.175 44.8688 114.136 44.7359 114.86 45.2482C115.583 45.7604 115.763 46.7363 115.29 47.4399C114.817 48.1435 113.855 48.2763 113.132 47.7641Z" fill="#011314"/>
<path d="M108.235 52.2011C107.512 51.6889 107.332 50.713 107.805 50.0094C108.278 49.3058 109.239 49.1729 109.962 49.6851C110.686 50.1974 110.866 51.1733 110.393 51.8769C109.919 52.5805 108.922 52.74 108.235 52.2011Z" fill="#011314"/>
<path d="M103.273 56.614C102.55 56.1017 102.37 55.1258 102.843 54.4222C103.316 53.7185 104.277 53.5858 105 54.098C105.724 54.6103 105.904 55.5861 105.43 56.2897C104.957 56.9933 103.996 57.1262 103.273 56.614Z" fill="#011314"/>
<path d="M98.3313 61.0707C97.6081 60.5584 97.4281 59.5826 97.9012 58.879C98.3744 58.1754 99.3356 58.0425 100.059 58.5548C100.782 59.067 100.962 60.0429 100.489 60.7465C100.016 61.4502 99.0545 61.5829 98.3313 61.0707Z" fill="#011314"/>
<path d="M93.3696 65.4837C92.6465 64.9715 92.4664 63.9956 92.9395 63.292C93.4127 62.5884 94.3739 62.4555 95.097 62.9677C95.8202 63.48 96.0003 64.4559 95.5272 65.1595C95.054 65.8631 94.0928 65.996 93.3696 65.4837Z" fill="#011314"/>
<path d="M88.4721 69.9206C87.749 69.4084 87.5689 68.4325 88.042 67.7289C88.5151 67.0253 89.4764 66.8926 90.1996 67.4048C90.9227 67.917 91.1028 68.8928 90.6296 69.5964C90.1565 70.3 89.1596 70.4595 88.4721 69.9206Z" fill="#011314"/>
<path d="M83.5105 74.3335C82.7874 73.8212 82.6073 72.8453 83.0804 72.1417C83.5535 71.4381 84.5147 71.3053 85.2379 71.8175C85.9611 72.3297 86.1412 73.3056 85.668 74.0092C85.1949 74.7129 84.2337 74.8457 83.5105 74.3335Z" fill="#011314"/>
<path d="M134.972 37.1207C134.249 36.6085 134.069 35.6327 134.542 34.9291C135.015 34.2255 135.976 34.0926 136.699 34.6049C137.422 35.1171 137.603 36.093 137.129 36.7966C136.656 37.5002 135.659 37.6596 134.972 37.1207Z" fill="#011314"/>
<path d="M130.011 41.5335C129.287 41.0213 129.107 40.0454 129.58 39.3418C130.054 38.6382 131.015 38.5053 131.738 39.0176C132.461 39.5298 132.641 40.5057 132.168 41.2093C131.695 41.9129 130.734 42.0458 130.011 41.5335Z" fill="#011314"/>
<path d="M125.069 45.9905C124.345 45.4783 124.165 44.5024 124.638 43.7988C125.112 43.0952 126.073 42.9624 126.796 43.4746C127.519 43.9868 127.699 44.9626 127.226 45.6662C126.753 46.3698 125.792 46.5027 125.069 45.9905Z" fill="#011314"/>
<path d="M120.151 50.3836C119.427 49.8714 119.247 48.8955 119.72 48.1919C120.194 47.4883 121.155 47.3554 121.878 47.8676C122.601 48.3799 122.781 49.3558 122.308 50.0594C121.835 50.763 120.838 50.9225 120.151 50.3836Z" fill="#011314"/>
<path d="M115.209 54.8404C114.486 54.3282 114.306 53.3523 114.779 52.6486C115.252 51.945 116.213 51.8122 116.937 52.3244C117.66 52.8367 117.84 53.8126 117.367 54.5162C116.894 55.2198 115.932 55.3527 115.209 54.8404Z" fill="#011314"/>
<path d="M110.248 59.2532C109.524 58.7409 109.344 57.765 109.817 57.0614C110.291 56.3578 111.252 56.2249 111.975 56.7372C112.698 57.2494 112.878 58.2253 112.405 58.929C111.932 59.6326 110.971 59.7655 110.248 59.2532Z" fill="#011314"/>
<path d="M105.306 63.7101C104.582 63.1979 104.402 62.222 104.875 61.5184C105.349 60.8147 106.31 60.6819 107.033 61.1941C107.756 61.7064 107.936 62.6823 107.463 63.3859C106.99 64.0895 106.029 64.2224 105.306 63.7101Z" fill="#011314"/>
<path d="M100.388 68.1031C99.6644 67.5909 99.4844 66.6151 99.9575 65.9115C100.431 65.2079 101.392 65.0751 102.115 65.5873C102.838 66.0995 103.018 67.0754 102.545 67.779C102.072 68.4826 101.075 68.642 100.388 68.1031Z" fill="#011314"/>
<path d="M95.4463 72.56C94.7231 72.0478 94.543 71.0719 95.0162 70.3682C95.4893 69.6646 96.4505 69.5318 97.1737 70.044C97.8969 70.5563 98.077 71.5321 97.6038 72.2358C97.1307 72.9394 96.1695 73.0722 95.4463 72.56Z" fill="#011314"/>
<path d="M90.4843 76.973C89.7611 76.4607 89.581 75.4848 90.0542 74.7812C90.5273 74.0776 91.4886 73.9448 92.2117 74.4571C92.9349 74.9693 93.1149 75.9451 92.6418 76.6487C92.1687 77.3524 91.2075 77.4852 90.4843 76.973Z" fill="#011314"/>
<path d="M136.803 44.3608C136.08 43.8486 135.9 42.8727 136.373 42.1691C136.846 41.4654 137.807 41.3326 138.531 41.8448C139.254 42.3571 139.434 43.333 138.961 44.0366C138.488 44.7402 137.526 44.873 136.803 44.3608Z" fill="#011314"/>
<path d="M131.886 48.7536C131.162 48.2414 130.982 47.2655 131.455 46.5618C131.929 45.8582 132.89 45.7255 133.613 46.2377C134.336 46.75 134.516 47.7258 134.043 48.4294C133.57 49.133 132.573 49.2925 131.886 48.7536Z" fill="#011314"/>
<path d="M126.944 53.2105C126.221 52.6983 126.041 51.7225 126.514 51.0188C126.987 50.3152 127.949 50.1824 128.672 50.6946C129.395 51.2069 129.575 52.1828 129.102 52.8864C128.629 53.59 127.667 53.7228 126.944 53.2105Z" fill="#011314"/>
<path d="M121.981 57.6257C121.259 57.1128 121.079 56.136 121.552 55.432C122.025 54.728 122.985 54.5953 123.707 55.1082C124.43 55.6211 124.61 56.5979 124.137 57.3019C123.692 58.0433 122.732 58.176 121.981 57.6257Z" fill="#011314"/>
<path d="M117.085 62.0602C116.362 61.5479 116.182 60.572 116.655 59.8684C117.128 59.1648 118.089 59.032 118.813 59.5443C119.536 60.0565 119.716 61.0323 119.243 61.7359C118.77 62.4395 117.773 62.599 117.085 62.0602Z" fill="#011314"/>
<path d="M112.122 66.4756C111.399 65.9627 111.219 64.986 111.692 64.282C112.165 63.578 113.125 63.4453 113.848 63.9582C114.57 64.4711 114.75 65.4478 114.277 66.1518C113.833 66.8932 112.872 67.0258 112.122 66.4756Z" fill="#011314"/>
<path d="M107.181 70.9301C106.458 70.4179 106.278 69.442 106.751 68.7384C107.224 68.0348 108.186 67.9019 108.909 68.4142C109.632 68.9264 109.812 69.9023 109.339 70.6059C108.866 71.3095 107.905 71.4424 107.181 70.9301Z" fill="#011314"/>
<path d="M102.239 75.3872C101.516 74.8749 101.336 73.899 101.809 73.1954C102.282 72.4918 103.244 72.359 103.967 72.8713C104.69 73.3835 104.87 74.3593 104.397 75.0629C103.924 75.7665 102.963 75.8994 102.239 75.3872Z" fill="#011314"/>
<path d="M97.3219 79.7801C96.5987 79.2678 96.4186 78.2919 96.8918 77.5883C97.3649 76.8847 98.3261 76.7519 99.0493 77.2641C99.7724 77.7763 99.9525 78.7522 99.4794 79.4558C99.0063 80.1595 98.0094 80.319 97.3219 79.7801Z" fill="#011314"/>
<path d="M92.3801 84.237C91.6569 83.7248 91.4768 82.7489 91.95 82.0453C92.4231 81.3417 93.3843 81.2088 94.1075 81.7211C94.8306 82.2333 95.0107 83.2092 94.5376 83.9128C94.0645 84.6164 93.1033 84.7493 92.3801 84.237Z" fill="#011314"/>
<path d="M143.821 46.9803C143.098 46.4681 142.918 45.4922 143.391 44.7886C143.864 44.0849 144.826 43.9521 145.549 44.4643C146.272 44.9766 146.452 45.9525 145.979 46.6561C145.506 47.3597 144.509 47.5192 143.821 46.9803Z" fill="#011314"/>
<path d="M138.88 51.4371C138.157 50.9249 137.977 49.949 138.45 49.2453C138.923 48.5417 139.884 48.409 140.607 48.9212C141.33 49.4334 141.511 50.4092 141.037 51.1129C140.564 51.8165 139.603 51.9493 138.88 51.4371Z" fill="#011314"/>
<path d="M133.918 55.8499C133.195 55.3376 133.015 54.3617 133.488 53.6581C133.961 52.9545 134.922 52.8216 135.646 53.3339C136.369 53.8461 136.549 54.822 136.076 55.5256C135.603 56.2292 134.641 56.3621 133.918 55.8499Z" fill="#011314"/>
<path d="M129.021 60.2869C128.298 59.7746 128.118 58.7987 128.591 58.0951C129.064 57.3915 130.025 57.2586 130.748 57.7709C131.472 58.2831 131.652 59.259 131.179 59.9626C130.705 60.6662 129.708 60.8257 129.021 60.2869Z" fill="#011314"/>
<path d="M124.059 64.6999C123.335 64.1877 123.155 63.2118 123.628 62.5082C124.102 61.8046 125.063 61.6717 125.786 62.1839C126.509 62.6962 126.689 63.6721 126.216 64.3757C125.743 65.0793 124.782 65.2122 124.059 64.6999Z" fill="#011314"/>
<path d="M119.117 69.1566C118.394 68.6443 118.214 67.6684 118.687 66.9648C119.16 66.2612 120.122 66.1284 120.845 66.6406C121.568 67.1528 121.748 68.1287 121.275 68.8323C120.802 69.536 119.841 69.6688 119.117 69.1566Z" fill="#011314"/>
<path d="M114.156 73.5696C113.432 73.0573 113.252 72.0815 113.726 71.3778C114.199 70.6742 115.16 70.5414 115.883 71.0536C116.606 71.5659 116.786 72.5418 116.313 73.2454C115.84 73.9491 114.879 74.0818 114.156 73.5696Z" fill="#011314"/>
<path d="M109.258 78.0067C108.534 77.4944 108.354 76.5185 108.828 75.8149C109.301 75.1113 110.262 74.9784 110.985 75.4907C111.708 76.0029 111.888 76.9788 111.415 77.6824C110.942 78.386 109.981 78.5189 109.258 78.0067Z" fill="#011314"/>
<path d="M104.296 82.4194C103.573 81.9072 103.393 80.9313 103.866 80.2277C104.339 79.524 105.3 79.3913 106.024 79.9035C106.747 80.4158 106.927 81.3916 106.454 82.0952C105.98 82.7988 105.019 82.9316 104.296 82.4194Z" fill="#011314"/>
<path d="M99.3547 86.8763C98.6315 86.364 98.4515 85.3882 98.9246 84.6846C99.3977 83.981 100.359 83.8481 101.082 84.3604C101.805 84.8726 101.985 85.8485 101.512 86.5521C101.039 87.2557 100.078 87.3885 99.3547 86.8763Z" fill="#011314"/>
<path d="M145.653 54.22C144.93 53.7077 144.75 52.7318 145.223 52.0282C145.696 51.3246 146.658 51.1918 147.381 51.7041C148.104 52.2163 148.284 53.1921 147.811 53.8957C147.338 54.5994 146.376 54.7322 145.653 54.22Z" fill="#011314"/>
<path d="M140.756 58.6569C140.033 58.1447 139.853 57.1689 140.326 56.4653C140.799 55.7616 141.76 55.6288 142.484 56.141C143.207 56.6533 143.387 57.6292 142.914 58.3328C142.44 59.0364 141.444 59.1958 140.756 58.6569Z" fill="#011314"/>
<path d="M135.794 63.0699C135.071 62.5577 134.891 61.5818 135.364 60.8782C135.837 60.1746 136.798 60.0417 137.521 60.5539C138.245 61.0662 138.425 62.0421 137.952 62.7457C137.478 63.4493 136.517 63.5821 135.794 63.0699Z" fill="#011314"/>
<path d="M130.852 67.5267C130.129 67.0145 129.949 66.0386 130.422 65.335C130.895 64.6313 131.856 64.4986 132.579 65.0108C133.303 65.5231 133.483 66.4989 133.01 67.2025C132.536 67.9061 131.575 68.039 130.852 67.5267Z" fill="#011314"/>
<path d="M125.934 71.9197C125.211 71.4075 125.031 70.4316 125.504 69.728C125.977 69.0244 126.939 68.8915 127.662 69.4037C128.385 69.916 128.565 70.8919 128.092 71.5955C127.619 72.2991 126.622 72.4586 125.934 71.9197Z" fill="#011314"/>
<path d="M120.993 76.3768C120.27 75.8646 120.09 74.8887 120.563 74.1851C121.036 73.4814 121.997 73.3486 122.72 73.8608C123.443 74.3731 123.623 75.349 123.15 76.0526C122.677 76.7562 121.716 76.8891 120.993 76.3768Z" fill="#011314"/>
<path d="M116.031 80.7896C115.308 80.2773 115.128 79.3014 115.601 78.5978C116.074 77.8942 117.035 77.7613 117.759 78.2736C118.482 78.7858 118.662 79.7617 118.189 80.4653C117.716 81.1689 116.754 81.3018 116.031 80.7896Z" fill="#011314"/>
<path d="M111.09 85.2462C110.367 84.734 110.187 83.7581 110.66 83.0545C111.133 82.3509 112.094 82.218 112.817 82.7303C113.54 83.2425 113.72 84.2184 113.247 84.922C112.774 85.6256 111.813 85.7585 111.09 85.2462Z" fill="#011314"/>
<path d="M106.172 89.6393C105.449 89.1271 105.269 88.1513 105.742 87.4476C106.215 86.744 107.176 86.6112 107.899 87.1234C108.622 87.6356 108.803 88.6115 108.329 89.3152C107.856 90.0188 106.895 90.1515 106.172 89.6393Z" fill="#011314"/>
<path d="M101.23 94.0964C100.507 93.5842 100.327 92.6083 100.8 91.9047C101.273 91.2011 102.234 91.0682 102.957 91.5804C103.68 92.0927 103.86 93.0686 103.387 93.7722C102.914 94.4758 101.953 94.6087 101.23 94.0964Z" fill="#011314"/>
<path d="M152.672 56.84C151.949 56.3277 151.769 55.3516 152.242 54.6479C152.715 53.9442 153.676 53.8114 154.399 54.3238C155.122 54.8361 155.302 55.8122 154.829 56.5159C154.356 57.2196 153.387 57.4164 152.672 56.84Z" fill="#011314"/>
<path d="M147.73 61.2965C147.007 60.7842 146.827 59.8083 147.3 59.1047C147.773 58.4011 148.734 58.2683 149.457 58.7805C150.18 59.2927 150.361 60.2686 149.887 60.9722C149.414 61.6759 148.453 61.8087 147.73 61.2965Z" fill="#011314"/>
<path d="M142.767 65.7117C142.044 65.1988 141.865 64.2222 142.337 63.5181C142.81 62.8141 143.771 62.6815 144.493 63.1944C145.215 63.7073 145.395 64.684 144.922 65.388C144.478 66.1294 143.517 66.262 142.767 65.7117Z" fill="#011314"/>
<path d="M137.87 70.1464C137.147 69.6342 136.967 68.6583 137.44 67.9547C137.913 67.251 138.875 67.1182 139.598 67.6304C140.321 68.1427 140.501 69.1186 140.028 69.8222C139.555 70.5258 138.558 70.6853 137.87 70.1464Z" fill="#011314"/>
<path d="M132.928 74.6034C132.205 74.0911 132.025 73.1152 132.498 72.4116C132.971 71.708 133.932 71.5752 134.656 72.0874C135.379 72.5996 135.559 73.5755 135.086 74.2791C134.613 74.9828 133.651 75.1156 132.928 74.6034Z" fill="#011314"/>
<path d="M127.967 79.0161C127.244 78.5039 127.064 77.5281 127.537 76.8245C128.01 76.1209 128.971 75.988 129.694 76.5003C130.418 77.0125 130.598 77.9884 130.125 78.692C129.651 79.3956 128.69 79.5284 127.967 79.0161Z" fill="#011314"/>
<path d="M123.025 83.473C122.302 82.9608 122.122 81.9849 122.595 81.2812C123.068 80.5776 124.03 80.4448 124.753 80.957C125.476 81.4692 125.656 82.4451 125.183 83.1488C124.71 83.8524 123.749 83.9852 123.025 83.473Z" fill="#011314"/>
<path d="M118.107 87.8662C117.384 87.3539 117.204 86.378 117.677 85.6744C118.15 84.9708 119.112 84.838 119.835 85.3503C120.558 85.8625 120.738 86.8383 120.265 87.5419C119.792 88.2455 118.831 88.3784 118.107 87.8662Z" fill="#011314"/>
<path d="M113.166 92.323C112.442 91.8107 112.262 90.8349 112.736 90.1313C113.209 89.4276 114.17 89.2948 114.893 89.807C115.616 90.3193 115.796 91.2952 115.323 91.9989C114.85 92.7025 113.889 92.8353 113.166 92.323Z" fill="#011314"/>
<path d="M108.204 96.7358C107.481 96.2235 107.301 95.2476 107.774 94.544C108.247 93.8404 109.208 93.7076 109.931 94.2198C110.655 94.732 110.835 95.7079 110.362 96.4115C109.888 97.1152 108.927 97.248 108.204 96.7358Z" fill="#011314"/>
<path d="M154.523 64.1235C153.8 63.6113 153.62 62.6355 154.093 61.9318C154.566 61.2282 155.528 61.0954 156.251 61.6076C156.974 62.1198 157.154 63.0957 156.681 63.7994C156.208 64.503 155.246 64.6357 154.523 64.1235Z" fill="#011314"/>
<path d="M149.605 68.5165C148.882 68.0043 148.702 67.0284 149.175 66.3247C149.648 65.6211 150.61 65.4883 151.333 66.0005C152.056 66.5127 152.236 67.4886 151.763 68.1923C151.29 68.8959 150.293 69.0554 149.605 68.5165Z" fill="#011314"/>
<path d="M144.663 72.9735C143.94 72.4612 143.76 71.4853 144.233 70.7816C144.706 70.078 145.668 69.9453 146.391 70.4575C147.114 70.9698 147.294 71.9456 146.821 72.6492C146.348 73.3529 145.387 73.4857 144.663 72.9735Z" fill="#011314"/>
<path d="M139.702 77.3864C138.979 76.8741 138.799 75.8982 139.272 75.1946C139.745 74.4909 140.706 74.3581 141.429 74.8703C142.153 75.3826 142.333 76.3585 141.86 77.0622C141.386 77.7658 140.425 77.8986 139.702 77.3864Z" fill="#011314"/>
<path d="M134.805 81.8232C134.081 81.311 133.901 80.3351 134.374 79.6315C134.848 78.9279 135.809 78.795 136.532 79.3073C137.255 79.8195 137.435 80.7954 136.962 81.499C136.489 82.2026 135.492 82.3621 134.805 81.8232Z" fill="#011314"/>
<path d="M129.843 86.236C129.12 85.7238 128.94 84.7479 129.413 84.0443C129.886 83.3407 130.847 83.2078 131.571 83.7201C132.294 84.2323 132.474 85.2082 132.001 85.9118C131.528 86.6154 130.566 86.7483 129.843 86.236Z" fill="#011314"/>
<path d="M124.901 90.6931C124.178 90.1809 123.998 89.205 124.471 88.5014C124.944 87.7978 125.905 87.6649 126.628 88.1772C127.351 88.6894 127.531 89.6653 127.058 90.3689C126.585 91.0725 125.624 91.2053 124.901 90.6931Z" fill="#011314"/>
<path d="M119.983 95.086C119.26 94.5737 119.08 93.5979 119.553 92.8943C120.026 92.1907 120.987 92.0578 121.711 92.5701C122.434 93.0823 122.614 94.0582 122.141 94.7618C121.668 95.4655 120.671 95.6249 119.983 95.086Z" fill="#011314"/>
<path d="M115.042 99.5429C114.318 99.0307 114.138 98.0548 114.611 97.3511C115.085 96.6475 116.046 96.5147 116.769 97.0269C117.492 97.5391 117.672 98.515 117.199 99.2187C116.726 99.9223 115.765 100.055 115.042 99.5429Z" fill="#011314"/>
<path d="M110.08 103.956C109.357 103.443 109.177 102.468 109.65 101.764C110.123 101.06 111.084 100.928 111.807 101.44C112.53 101.952 112.711 102.928 112.237 103.631C111.764 104.335 110.803 104.468 110.08 103.956Z" fill="#011314"/>
<path d="M161.542 66.743C160.819 66.2308 160.638 65.2549 161.112 64.5513C161.585 63.8477 162.546 63.7148 163.269 64.2271C163.992 64.7393 164.172 65.7151 163.699 66.4187C163.226 67.1223 162.229 67.2818 161.542 66.743Z" fill="#011314"/>
<path d="M156.58 71.156C155.856 70.6437 155.676 69.6679 156.15 68.9643C156.623 68.2607 157.584 68.1278 158.307 68.6401C159.03 69.1523 159.21 70.1282 158.737 70.8318C158.264 71.5354 157.303 71.6682 156.58 71.156Z" fill="#011314"/>
<path d="M151.638 75.6129C150.915 75.1006 150.735 74.1247 151.208 73.4211C151.681 72.7175 152.642 72.5846 153.365 73.0969C154.088 73.6091 154.269 74.585 153.795 75.2886C153.322 75.9922 152.361 76.1251 151.638 75.6129Z" fill="#011314"/>
<path d="M146.72 80.0057C145.997 79.4935 145.817 78.5176 146.29 77.814C146.763 77.1103 147.725 76.9776 148.448 77.4898C149.171 78.0021 149.351 78.9779 148.878 79.6815C148.405 80.3851 147.408 80.5446 146.72 80.0057Z" fill="#011314"/>
<path d="M141.779 84.4625C141.055 83.9503 140.875 82.9745 141.349 82.2709C141.822 81.5673 142.783 81.4345 143.506 81.9467C144.229 82.4589 144.409 83.4348 143.936 84.1384C143.463 84.842 142.502 84.9747 141.779 84.4625Z" fill="#011314"/>
<path d="M136.817 88.8757C136.094 88.3634 135.913 87.3875 136.387 86.6839C136.86 85.9803 137.821 85.8474 138.544 86.3597C139.267 86.8719 139.447 87.8478 138.974 88.5514C138.501 89.255 137.54 89.3879 136.817 88.8757Z" fill="#011314"/>
<path d="M131.919 93.3125C131.196 92.8003 131.015 91.8244 131.489 91.1207C131.962 90.4171 132.923 90.2843 133.646 90.7966C134.369 91.3088 134.549 92.2847 134.076 92.9883C133.603 93.692 132.606 93.8514 131.919 93.3125Z" fill="#011314"/>
<path d="M126.958 97.7257C126.235 97.2133 126.055 96.2373 126.528 95.5336C127.001 94.8299 127.962 94.6971 128.685 95.2095C129.408 95.7218 129.588 96.6979 129.115 97.4016C128.642 98.1053 127.709 98.2754 126.958 97.7257Z" fill="#011314"/>
<path d="M122.015 102.182C121.292 101.67 121.112 100.694 121.585 99.9907C122.058 99.287 123.02 99.1542 123.743 99.6664C124.466 100.179 124.646 101.155 124.173 101.858C123.7 102.562 122.739 102.695 122.015 102.182Z" fill="#011314"/>
<path d="M117.053 106.598C116.33 106.085 116.15 105.108 116.623 104.404C117.096 103.7 118.056 103.567 118.779 104.08C119.501 104.593 119.681 105.57 119.208 106.274C118.764 107.015 117.803 107.148 117.053 106.598Z" fill="#011314"/>
<path d="M76.5362 71.6941C75.813 71.1818 75.633 70.206 76.1061 69.5024C76.5793 68.7988 77.5405 68.666 78.2637 69.1782C78.9868 69.6904 79.1669 70.6663 78.6938 71.3699C78.2206 72.0736 77.2237 72.233 76.5362 71.6941Z" fill="#011314"/>
<path d="M71.5943 76.1511C70.8711 75.6389 70.691 74.663 71.1642 73.9594C71.6373 73.2557 72.5985 73.1229 73.3216 73.6351C74.0448 74.1474 74.2249 75.1233 73.7518 75.8269C73.2786 76.5305 72.3175 76.6633 71.5943 76.1511Z" fill="#011314"/>
<path d="M66.6325 80.5639C65.9094 80.0517 65.7293 79.0758 66.2024 78.3722C66.6755 77.6686 67.6368 77.5358 68.36 78.0481C69.0831 78.5603 69.2632 79.536 68.79 80.2397C68.3169 80.9433 67.3557 81.0761 66.6325 80.5639Z" fill="#011314"/>
<path d="M61.7349 85.0009C61.0117 84.4887 60.8317 83.5128 61.3049 82.8092C61.778 82.1056 62.7392 81.9727 63.4624 82.485C64.1855 82.9973 64.3656 83.9732 63.8925 84.6768C63.4193 85.3804 62.4224 85.5398 61.7349 85.0009Z" fill="#011314"/>
<path d="M56.7734 89.4137C56.0503 88.9015 55.8702 87.9256 56.3433 87.2219C56.8164 86.5183 57.7776 86.3855 58.5008 86.8977C59.224 87.41 59.4041 88.3858 58.9309 89.0895C58.4578 89.7931 57.4966 89.9259 56.7734 89.4137Z" fill="#011314"/>
<path d="M51.832 93.8705C51.1089 93.3582 50.9288 92.3824 51.4019 91.6787C51.8751 90.9751 52.8363 90.8424 53.5595 91.3546C54.2827 91.8668 54.4627 92.8426 53.9896 93.5462C53.5164 94.2499 52.5552 94.3827 51.832 93.8705Z" fill="#011314"/>
<path d="M46.9141 98.2636C46.1909 97.7513 46.0108 96.7754 46.484 96.0718C46.9571 95.3682 47.9183 95.2353 48.6415 95.7476C49.3646 96.2598 49.5447 97.2357 49.0716 97.9393C48.5985 98.6429 47.6016 98.8024 46.9141 98.2636Z" fill="#011314"/>
<path d="M41.9721 102.72C41.2489 102.208 41.0688 101.232 41.542 100.529C42.0151 99.8251 42.9763 99.6922 43.6995 100.204C44.4226 100.717 44.6027 101.693 44.1296 102.396C43.6565 103.1 42.6953 103.233 41.9721 102.72Z" fill="#011314"/>
<path d="M37.0105 107.133C36.2873 106.621 36.1072 105.645 36.5804 104.942C37.0535 104.238 38.0147 104.105 38.7379 104.617C39.461 105.13 39.6411 106.105 39.168 106.809C38.6949 107.513 37.7337 107.646 37.0105 107.133Z" fill="#011314"/>
<path d="M32.1129 111.57C31.3897 111.058 31.2096 110.082 31.6827 109.379C32.1559 108.675 33.1171 108.542 33.8403 109.054C34.5634 109.567 34.7435 110.542 34.2704 111.246C33.7972 111.95 32.8003 112.109 32.1129 111.57Z" fill="#011314"/>
<path d="M78.3681 78.934C77.6449 78.4218 77.4648 77.4459 77.9379 76.7423C78.4111 76.0387 79.3723 75.9058 80.0955 76.4181C80.8186 76.9303 80.9987 77.9062 80.5256 78.6098C80.0524 79.3134 79.0912 79.4463 78.3681 78.934Z" fill="#011314"/>
<path d="M73.4701 83.371C72.7469 82.8587 72.5669 81.8828 73.04 81.1792C73.5131 80.4756 74.4743 80.3428 75.1975 80.855C75.9207 81.3672 76.1008 82.3431 75.6276 83.0468C75.1545 83.7504 74.1576 83.9099 73.4701 83.371Z" fill="#011314"/>
<path d="M68.5084 87.7838C67.7852 87.2716 67.6052 86.2958 68.0783 85.5921C68.5515 84.8885 69.5127 84.7557 70.2359 85.2679C70.959 85.7801 71.1391 86.756 70.666 87.4597C70.1928 88.1633 69.2316 88.296 68.5084 87.7838Z" fill="#011314"/>
<path d="M63.5672 92.2406C62.844 91.7284 62.6639 90.7525 63.1371 90.0489C63.6102 89.3453 64.5714 89.2124 65.2946 89.7247C66.0177 90.2369 66.1978 91.2128 65.7247 91.9164C65.2515 92.62 64.2903 92.7529 63.5672 92.2406Z" fill="#011314"/>
<path d="M58.6492 96.6335C57.926 96.1213 57.7459 95.1455 58.219 94.4419C58.6922 93.7382 59.6535 93.6055 60.3766 94.1177C61.0998 94.6299 61.2798 95.6057 60.8067 96.3093C60.3336 97.0129 59.3367 97.1724 58.6492 96.6335Z" fill="#011314"/>
<path d="M53.7071 101.091C52.9839 100.578 52.8039 99.6026 53.277 98.899C53.7502 98.1954 54.7114 98.0625 55.4345 98.5747C56.1577 99.087 56.3378 100.063 55.8647 100.766C55.3915 101.47 54.4303 101.603 53.7071 101.091Z" fill="#011314"/>
<path d="M48.7459 105.503C48.0227 104.991 47.8426 104.015 48.3157 103.312C48.7889 102.608 49.7501 102.475 50.4732 102.987C51.1964 103.5 51.3765 104.476 50.9034 105.179C50.4302 105.883 49.469 106.016 48.7459 105.503Z" fill="#011314"/>
<path d="M43.8483 109.94C43.1252 109.428 42.9451 108.452 43.4182 107.748C43.8913 107.045 44.8526 106.912 45.5758 107.424C46.299 107.937 46.479 108.912 46.0058 109.616C45.5327 110.32 44.5358 110.479 43.8483 109.94Z" fill="#011314"/>
<path d="M38.8863 114.353C38.1631 113.841 37.983 112.865 38.4561 112.162C38.9293 111.458 39.8905 111.325 40.6136 111.837C41.3368 112.35 41.5169 113.326 41.0438 114.029C40.5706 114.733 39.6094 114.866 38.8863 114.353Z" fill="#011314"/>
<path d="M33.9446 118.81C33.2215 118.298 33.0414 117.322 33.5145 116.618C33.9876 115.915 34.9488 115.782 35.672 116.294C36.3952 116.806 36.5753 117.782 36.1021 118.486C35.629 119.19 34.6678 119.322 33.9446 118.81Z" fill="#011314"/>
<path d="M85.3863 81.5534C84.6632 81.0411 84.483 80.0653 84.9562 79.3617C85.4293 78.6581 86.3905 78.5252 87.1137 79.0374C87.8369 79.5497 88.017 80.5255 87.5438 81.2291C87.0707 81.9327 86.0738 82.0922 85.3863 81.5534Z" fill="#011314"/>
<path d="M80.4443 86.0104C79.7211 85.4982 79.541 84.5223 80.0142 83.8187C80.4873 83.1151 81.4486 82.9823 82.1717 83.4945C82.8949 84.0068 83.0749 84.9826 82.6018 85.6862C82.1286 86.3898 81.1674 86.5227 80.4443 86.0104Z" fill="#011314"/>
<path d="M75.483 90.4231C74.7599 89.9108 74.5798 88.9349 75.0529 88.2313C75.526 87.5277 76.4872 87.3948 77.2104 87.9071C77.9336 88.4193 78.1137 89.3952 77.6405 90.0988C77.1674 90.8025 76.2062 90.9353 75.483 90.4231Z" fill="#011314"/>
<path d="M70.5851 94.86C69.862 94.3477 69.6819 93.3718 70.155 92.6682C70.6281 91.9646 71.5893 91.8317 72.3125 92.344C73.0357 92.8562 73.2158 93.8321 72.7426 94.5357C72.2695 95.2394 71.2726 95.3989 70.5851 94.86Z" fill="#011314"/>
<path d="M65.6231 99.2736C64.9001 98.7612 64.7201 97.7852 65.1931 97.0815C65.6662 96.3778 66.6272 96.245 67.3503 96.7573C68.0733 97.2697 68.2533 98.2458 67.7802 98.9495C67.3072 99.6532 66.3744 99.8233 65.6231 99.2736Z" fill="#011314"/>
<path d="M60.6814 103.73C59.9582 103.218 59.7781 102.242 60.2513 101.538C60.7244 100.835 61.6856 100.702 62.4088 101.214C63.132 101.726 63.3121 102.702 62.8389 103.406C62.3658 104.109 61.4046 104.242 60.6814 103.73Z" fill="#011314"/>
<path d="M55.7626 108.125C55.0402 107.612 54.8605 106.636 55.3333 105.932C55.8061 105.228 56.7665 105.095 57.4889 105.608C58.2113 106.121 58.3911 107.098 57.9183 107.802C57.4737 108.543 56.4776 108.702 55.7626 108.125Z" fill="#011314"/>
<path d="M50.8221 112.58C50.099 112.068 49.9189 111.092 50.392 110.388C50.8651 109.685 51.8263 109.552 52.5495 110.064C53.2727 110.576 53.4528 111.552 52.9796 112.256C52.5065 112.959 51.5453 113.092 50.8221 112.58Z" fill="#011314"/>
<path d="M45.8801 117.037C45.1569 116.525 44.9768 115.549 45.4499 114.845C45.9231 114.142 46.8843 114.009 47.6074 114.521C48.3306 115.033 48.5107 116.009 48.0376 116.713C47.5644 117.416 46.6032 117.549 45.8801 117.037Z" fill="#011314"/>
<path d="M40.9628 121.43C40.2397 120.917 40.0596 119.942 40.5328 119.238C41.0059 118.534 41.9671 118.401 42.6903 118.914C43.4135 119.426 43.5936 120.402 43.1204 121.106C42.6473 121.809 41.6503 121.969 40.9628 121.43Z" fill="#011314"/>
<path d="M87.2378 88.8374C86.5146 88.3252 86.3345 87.3493 86.8076 86.6457C87.2808 85.942 88.242 85.8092 88.9651 86.3214C89.6883 86.8337 89.8684 87.8095 89.3953 88.5132C88.9221 89.2168 87.9609 89.3496 87.2378 88.8374Z" fill="#011314"/>
<path d="M82.3205 93.2301C81.5973 92.7179 81.4173 91.7421 81.8904 91.0385C82.3636 90.3349 83.3248 90.2021 84.0479 90.7143C84.7711 91.2265 84.9512 92.2024 84.4781 92.906C84.0049 93.6096 83.0437 93.7423 82.3205 93.2301Z" fill="#011314"/>
<path d="M77.3781 97.6875C76.6549 97.1752 76.4748 96.1994 76.9479 95.4957C77.4211 94.7921 78.3823 94.6593 79.1055 95.1715C79.8286 95.6837 80.0087 96.6596 79.5356 97.3632C79.0625 98.0669 78.1013 98.1997 77.3781 97.6875Z" fill="#011314"/>
<path d="M72.4169 102.1C71.6937 101.588 71.5136 100.612 71.9868 99.9082C72.4599 99.2046 73.4212 99.0718 74.1443 99.5841C74.8675 100.096 75.0475 101.072 74.5744 101.776C74.1013 102.479 73.1401 102.612 72.4169 102.1Z" fill="#011314"/>
<path d="M67.5189 106.537C66.7957 106.025 66.6157 105.049 67.0888 104.346C67.5619 103.642 68.5231 103.509 69.2463 104.021C69.9695 104.534 70.1496 105.509 69.6765 106.213C69.2033 106.917 68.2063 107.076 67.5189 106.537Z" fill="#011314"/>
<path d="M62.5572 110.95C61.8341 110.438 61.654 109.462 62.1271 108.758C62.6003 108.055 63.5615 107.922 64.2846 108.434C65.0078 108.946 65.1879 109.922 64.7147 110.626C64.2416 111.329 63.2804 111.462 62.5572 110.95Z" fill="#011314"/>
<path d="M57.6156 115.407C56.8924 114.895 56.7123 113.919 57.1855 113.215C57.6586 112.511 58.6199 112.379 59.3431 112.891C60.0662 113.403 60.2463 114.379 59.7731 115.083C59.3 115.786 58.3388 115.919 57.6156 115.407Z" fill="#011314"/>
<path d="M52.6976 119.8C51.9745 119.288 51.7944 118.312 52.2675 117.608C52.7406 116.905 53.7018 116.772 54.425 117.284C55.1482 117.796 55.3283 118.772 54.8551 119.476C54.382 120.179 53.3851 120.339 52.6976 119.8Z" fill="#011314"/>
<path d="M47.7563 124.257C47.0332 123.745 46.8531 122.769 47.3262 122.065C47.7993 121.361 48.7605 121.229 49.4837 121.741C50.2069 122.253 50.387 123.229 49.9138 123.933C49.4407 124.636 48.4795 124.769 47.7563 124.257Z" fill="#011314"/>
<path d="M42.7943 128.67C42.0711 128.157 41.891 127.182 42.3642 126.478C42.8373 125.774 43.7985 125.641 44.5217 126.154C45.2449 126.666 45.425 127.642 44.9518 128.345C44.4787 129.049 43.5175 129.182 42.7943 128.67Z" fill="#011314"/>
<path d="M94.2561 91.4568C93.5329 90.9446 93.3528 89.9688 93.8259 89.2652C94.2991 88.5616 95.2603 88.4288 95.9835 88.941C96.7067 89.4532 96.8867 90.429 96.4136 91.1326C95.9404 91.8362 94.9792 91.9691 94.2561 91.4568Z" fill="#011314"/>
<path d="M89.2944 95.8697C88.5712 95.3575 88.3911 94.3816 88.8642 93.678C89.3374 92.9743 90.2986 92.8415 91.0217 93.3537C91.7449 93.866 91.925 94.8419 91.4519 95.5455C90.9787 96.2491 90.0175 96.3819 89.2944 95.8697Z" fill="#011314"/>
<path d="M84.3527 100.327C83.6296 99.8143 83.4495 98.8384 83.9226 98.1348C84.3957 97.4312 85.3569 97.2984 86.0801 97.8106C86.8032 98.3228 86.9833 99.2987 86.5102 100.002C86.0371 100.706 85.0759 100.839 84.3527 100.327Z" fill="#011314"/>
<path d="M79.4352 104.72C78.712 104.207 78.5319 103.231 79.0051 102.528C79.4782 101.824 80.4394 101.691 81.1626 102.203C81.8858 102.716 82.0658 103.692 81.5927 104.395C81.1196 105.099 80.1226 105.258 79.4352 104.72Z" fill="#011314"/>
<path d="M74.4927 109.177C73.7696 108.664 73.5895 107.689 74.0626 106.985C74.5357 106.281 75.4969 106.148 76.2201 106.661C76.9433 107.173 77.1234 108.149 76.6502 108.852C76.1771 109.556 75.2159 109.689 74.4927 109.177Z" fill="#011314"/>
<path d="M69.5314 113.589C68.8082 113.077 68.6282 112.101 69.1013 111.398C69.5744 110.694 70.5356 110.561 71.2588 111.073C71.982 111.586 72.1621 112.562 71.6889 113.265C71.2158 113.969 70.2545 114.102 69.5314 113.589Z" fill="#011314"/>
<path d="M64.6339 118.026C63.9108 117.514 63.7307 116.538 64.2038 115.835C64.6769 115.131 65.6381 114.998 66.3613 115.51C67.0844 116.023 67.2645 116.999 66.7914 117.702C66.3183 118.406 65.3214 118.565 64.6339 118.026Z" fill="#011314"/>
<path d="M59.6718 122.439C58.9486 121.927 58.7686 120.951 59.2417 120.247C59.7149 119.544 60.6761 119.411 61.3993 119.923C62.1225 120.435 62.3025 121.411 61.8293 122.115C61.3562 122.819 60.395 122.951 59.6718 122.439Z" fill="#011314"/>
<path d="M54.7297 126.896C54.0066 126.384 53.8265 125.408 54.2997 124.704C54.7728 124.001 55.7341 123.868 56.4572 124.38C57.1804 124.893 57.3605 125.868 56.8873 126.572C56.4142 127.276 55.4529 127.409 54.7297 126.896Z" fill="#011314"/>
<path d="M49.8126 131.289C49.0894 130.777 48.9093 129.801 49.3824 129.097C49.8556 128.394 50.8168 128.261 51.5399 128.773C52.2631 129.285 52.4432 130.261 51.9701 130.965C51.4969 131.668 50.5 131.828 49.8126 131.289Z" fill="#011314"/>
<path d="M96.0878 98.6967C95.3646 98.1845 95.1846 97.2087 95.6577 96.5051C96.1308 95.8015 97.092 95.6686 97.8152 96.1808C98.5384 96.6931 98.7185 97.669 98.2453 98.3726C97.7722 99.0762 96.8109 99.209 96.0878 98.6967Z" fill="#011314"/>
<path d="M91.1899 103.134C90.4667 102.622 90.2866 101.646 90.7597 100.942C91.2329 100.238 92.1941 100.106 92.9173 100.618C93.6404 101.13 93.8205 102.106 93.3474 102.81C92.8743 103.513 91.913 103.646 91.1899 103.134Z" fill="#011314"/>
<path d="M86.2278 107.547C85.5047 107.035 85.3246 106.059 85.7977 105.355C86.2708 104.651 87.2321 104.519 87.9553 105.031C88.6784 105.543 88.8585 106.519 88.3853 107.223C87.9122 107.926 86.951 108.059 86.2278 107.547Z" fill="#011314"/>
<path d="M81.2865 112.004C80.5633 111.491 80.3833 110.516 80.8564 109.812C81.3296 109.108 82.2908 108.976 83.0139 109.488C83.7371 110 83.9172 110.976 83.4441 111.679C82.9709 112.383 82.0096 112.516 81.2865 112.004Z" fill="#011314"/>
<path d="M76.3689 116.397C75.6458 115.884 75.4657 114.908 75.9388 114.205C76.412 113.501 77.3732 113.368 78.0963 113.88C78.8195 114.393 78.9996 115.369 78.5264 116.072C78.0533 116.776 77.0564 116.935 76.3689 116.397Z" fill="#011314"/>
<path d="M71.427 120.853C70.7038 120.341 70.5237 119.365 70.9968 118.662C71.4699 117.958 72.4312 117.825 73.1544 118.337C73.8775 118.85 74.0576 119.825 73.5845 120.529C73.1113 121.233 72.1501 121.365 71.427 120.853Z" fill="#011314"/>
<path d="M66.4649 125.266C65.7418 124.754 65.5617 123.778 66.0348 123.075C66.5079 122.371 67.4691 122.238 68.1923 122.75C68.9155 123.263 69.0956 124.239 68.6224 124.942C68.1493 125.646 67.1881 125.779 66.4649 125.266Z" fill="#011314"/>
<path d="M61.5677 129.703C60.8445 129.191 60.6644 128.215 61.1375 127.512C61.6107 126.808 62.5719 126.675 63.2951 127.187C64.0182 127.7 64.1983 128.675 63.7252 129.379C63.252 130.083 62.2551 130.242 61.5677 129.703Z" fill="#011314"/>
<path d="M56.6061 134.116C55.8829 133.604 55.7028 132.628 56.1759 131.924C56.6491 131.221 57.6102 131.088 58.3334 131.6C59.0566 132.112 59.2367 133.088 58.7635 133.792C58.2904 134.496 57.3292 134.628 56.6061 134.116Z" fill="#011314"/>
<path d="M51.6644 138.573C50.9412 138.061 50.7611 137.085 51.2342 136.381C51.7074 135.678 52.6686 135.545 53.3917 136.057C54.1149 136.569 54.295 137.545 53.8219 138.249C53.3487 138.952 52.3875 139.085 51.6644 138.573Z" fill="#011314"/>
<path d="M103.106 101.316C102.383 100.804 102.203 99.8282 102.676 99.1245C103.149 98.4209 104.11 98.2881 104.833 98.8003C105.557 99.3125 105.737 100.288 105.264 100.992C104.79 101.696 103.829 101.829 103.106 101.316Z" fill="#011314"/>
<path d="M98.1637 105.773C97.4405 105.261 97.2604 104.285 97.7335 103.582C98.2067 102.878 99.1679 102.745 99.891 103.257C100.614 103.77 100.794 104.746 100.321 105.449C99.848 106.153 98.8868 106.286 98.1637 105.773Z" fill="#011314"/>
<path d="M93.2025 110.186C92.4793 109.674 92.2992 108.698 92.7723 107.994C93.2455 107.291 94.2067 107.158 94.9298 107.67C95.653 108.182 95.8331 109.158 95.36 109.862C94.8869 110.565 93.9257 110.698 93.2025 110.186Z" fill="#011314"/>
<path d="M88.3048 114.623C87.5816 114.111 87.4015 113.135 87.8747 112.431C88.3478 111.728 89.309 111.595 90.0322 112.107C90.7553 112.619 90.9354 113.595 90.4623 114.299C89.9892 115.003 88.9923 115.162 88.3048 114.623Z" fill="#011314"/>
<path d="M83.3431 119.036C82.62 118.523 82.4399 117.548 82.9131 116.844C83.3862 116.14 84.3474 116.008 85.0706 116.52C85.7937 117.032 85.9738 118.008 85.5007 118.712C85.0276 119.415 84.0663 119.548 83.3431 119.036Z" fill="#011314"/>
<path d="M78.4011 123.493C77.678 122.98 77.4979 122.005 77.971 121.301C78.4442 120.597 79.4054 120.464 80.1285 120.977C80.8517 121.489 81.0318 122.465 80.5586 123.168C80.0855 123.872 79.1243 124.005 78.4011 123.493Z" fill="#011314"/>
<path d="M73.4835 127.886C72.7603 127.374 72.5802 126.398 73.0534 125.694C73.5265 124.991 74.4878 124.858 75.2109 125.37C75.9341 125.882 76.1141 126.858 75.641 127.562C75.1679 128.265 74.171 128.425 73.4835 127.886Z" fill="#011314"/>
<path d="M68.5419 132.343C67.8187 131.83 67.6387 130.855 68.1118 130.151C68.5849 129.447 69.5461 129.314 70.2693 129.827C70.9925 130.339 71.1726 131.315 70.6994 132.018C70.2263 132.722 69.265 132.855 68.5419 132.343Z" fill="#011314"/>
<path d="M63.5799 136.755C62.8567 136.243 62.6766 135.267 63.1497 134.564C63.6229 133.86 64.5841 133.727 65.3072 134.24C66.0304 134.752 66.2105 135.728 65.7374 136.431C65.2642 137.135 64.303 137.268 63.5799 136.755Z" fill="#011314"/>
<path d="M58.6823 141.192C57.9591 140.68 57.779 139.704 58.2522 139.001C58.7253 138.297 59.6866 138.164 60.4097 138.677C61.1329 139.189 61.3129 140.165 60.8398 140.868C60.3667 141.572 59.3698 141.731 58.6823 141.192Z" fill="#011314"/>
<path d="M104.981 108.536C104.258 108.024 104.078 107.048 104.551 106.345C105.024 105.641 105.985 105.508 106.709 106.02C107.432 106.533 107.612 107.509 107.139 108.212C106.666 108.916 105.669 109.075 104.981 108.536Z" fill="#011314"/>
<path d="M100.04 112.993C99.3167 112.481 99.1366 111.505 99.6098 110.801C100.083 110.098 101.044 109.965 101.767 110.477C102.491 110.99 102.671 111.965 102.197 112.669C101.724 113.373 100.763 113.506 100.04 112.993Z" fill="#011314"/>
<path d="M95.0783 117.406C94.3551 116.894 94.175 115.918 94.6482 115.214C95.1213 114.511 96.0825 114.378 96.8057 114.89C97.5288 115.402 97.7089 116.378 97.2358 117.082C96.7627 117.786 95.8015 117.918 95.0783 117.406Z" fill="#011314"/>
<path d="M90.1363 121.863C89.4131 121.351 89.233 120.375 89.7061 119.671C90.1792 118.968 91.1404 118.835 91.8636 119.347C92.5868 119.859 92.7669 120.835 92.2938 121.539C91.8206 122.242 90.8594 122.375 90.1363 121.863Z" fill="#011314"/>
<path d="M85.219 126.256C84.4958 125.744 84.3157 124.768 84.7888 124.064C85.262 123.36 86.2232 123.228 86.9463 123.74C87.6695 124.252 87.8496 125.228 87.3765 125.932C86.9033 126.635 85.9064 126.795 85.219 126.256Z" fill="#011314"/>
<path d="M80.277 130.713C79.5538 130.201 79.3737 129.225 79.8468 128.521C80.32 127.818 81.2812 127.685 82.0043 128.197C82.7275 128.709 82.9076 129.685 82.4345 130.389C81.9613 131.092 81.0001 131.225 80.277 130.713Z" fill="#011314"/>
<path d="M75.3134 135.128C74.591 134.615 74.4113 133.638 74.8841 132.934C75.3569 132.23 76.3172 132.098 77.0397 132.611C77.7621 133.124 77.9419 134.1 77.4691 134.804C77.0245 135.546 76.0641 135.678 75.3134 135.128Z" fill="#011314"/>
<path d="M70.4174 139.563C69.6942 139.051 69.5141 138.075 69.9873 137.371C70.4604 136.668 71.4216 136.535 72.1448 137.047C72.868 137.559 73.0481 138.535 72.5749 139.239C72.1018 139.942 71.1049 140.102 70.4174 139.563Z" fill="#011314"/>
<path d="M65.4757 144.02C64.7525 143.507 64.5724 142.531 65.0456 141.828C65.5187 141.124 66.4799 140.991 67.2031 141.504C67.9262 142.016 68.1063 142.992 67.6332 143.695C67.1601 144.399 66.1989 144.532 65.4757 144.02Z" fill="#011314"/>
<path d="M60.514 148.433C59.7908 147.92 59.6108 146.944 60.0839 146.241C60.5571 145.537 61.5182 145.404 62.2414 145.917C62.9646 146.429 63.1447 147.405 62.6715 148.108C62.1984 148.812 61.2371 148.945 60.514 148.433Z" fill="#011314"/>
<path d="M111.975 111.22C111.252 110.708 111.072 109.732 111.545 109.028C112.018 108.325 112.98 108.192 113.703 108.704C114.426 109.216 114.606 110.192 114.133 110.896C113.66 111.599 112.699 111.732 111.975 111.22Z" fill="#011314"/>
<path d="M107.014 115.633C106.291 115.12 106.111 114.144 106.584 113.441C107.057 112.737 108.018 112.604 108.741 113.117C109.465 113.629 109.645 114.605 109.172 115.308C108.698 116.012 107.737 116.145 107.014 115.633Z" fill="#011314"/>
<path d="M102.072 120.089C101.349 119.577 101.169 118.601 101.642 117.898C102.115 117.194 103.076 117.061 103.799 117.573C104.523 118.086 104.703 119.062 104.23 119.765C103.756 120.469 102.795 120.602 102.072 120.089Z" fill="#011314"/>
<path d="M97.1545 124.483C96.4313 123.97 96.2513 122.995 96.7244 122.291C97.1976 121.587 98.1588 121.454 98.8819 121.967C99.6051 122.479 99.7852 123.455 99.312 124.158C98.8389 124.862 97.8419 125.021 97.1545 124.483Z" fill="#011314"/>
<path d="M92.2125 128.94C91.4893 128.427 91.3092 127.451 91.7824 126.748C92.2555 126.044 93.2167 125.911 93.9399 126.424C94.663 126.936 94.8431 127.912 94.37 128.615C93.8969 129.319 92.9357 129.452 92.2125 128.94Z" fill="#011314"/>
<path d="M87.2507 133.352C86.5276 132.84 86.3475 131.864 86.8206 131.161C87.2938 130.457 88.255 130.324 88.9782 130.837C89.7014 131.349 89.8814 132.325 89.4083 133.028C88.9351 133.732 87.9739 133.865 87.2507 133.352Z" fill="#011314"/>
<path d="M82.3532 137.789C81.63 137.277 81.45 136.301 81.9231 135.598C82.3962 134.894 83.3574 134.761 84.0806 135.274C84.8038 135.786 84.9839 136.762 84.5108 137.465C84.0376 138.169 83.0406 138.328 82.3532 137.789Z" fill="#011314"/>
<path d="M77.3916 142.202C76.6685 141.69 76.4884 140.714 76.9615 140.01C77.4346 139.307 78.3958 139.174 79.119 139.686C79.8422 140.198 80.0223 141.174 79.5491 141.878C79.076 142.581 78.1148 142.714 77.3916 142.202Z" fill="#011314"/>
<path d="M72.4503 146.659C71.7271 146.146 71.547 145.171 72.0202 144.467C72.4933 143.763 73.4546 143.631 74.1778 144.143C74.9009 144.655 75.081 145.631 74.6078 146.334C74.1347 147.038 73.1735 147.171 72.4503 146.659Z" fill="#011314"/>
<path d="M67.5323 151.052C66.8091 150.54 66.629 149.564 67.1022 148.86C67.5753 148.156 68.5365 148.024 69.2597 148.536C69.9829 149.048 70.163 150.024 69.6899 150.728C69.2167 151.431 68.2198 151.591 67.5323 151.052Z" fill="#011314"/>
<path d="M160.203 109.07V69.9833H51.3499V111.865H93.2316V153.53H182.52V109.07H160.203Z" fill="#081717"/>
<path d="M74.8798 80.2967L75.0748 80.3183C76.7214 80.5567 77.2848 81.0333 77.2848 82.1383V88.7033C77.2848 89.3533 76.8731 89.6783 76.0498 89.6783H68.5531C67.7298 89.6783 67.3181 89.3533 67.3181 88.7033V82.1383C67.3181 81.0117 67.9031 80.535 69.5281 80.3183L69.7231 80.2967V78.8233H60.0381V80.2967L60.2331 80.3183C61.8798 80.5567 62.4431 81.0333 62.4431 82.1383V98.735C62.4431 99.8833 61.8581 100.36 60.2331 100.598L60.0381 100.62V102.093H69.7231V100.62L69.5281 100.598C67.8598 100.382 67.3181 99.905 67.3181 98.735V92.4517C67.3181 91.8017 67.7298 91.4767 68.5098 91.4767H76.0714C76.8731 91.4767 77.2631 91.8017 77.2631 92.4517V98.735C77.2631 99.8833 76.6781 100.36 75.0531 100.598L74.8581 100.62V102.093H84.5431V100.62L84.3481 100.598C82.6798 100.382 82.1381 99.905 82.1381 98.735V82.1383C82.1381 81.0117 82.7231 80.535 84.3481 80.3183L84.5431 80.2967V78.8233H74.8581V80.2967H74.8798Z" fill="white"/>
<path d="M101.682 99.9917C101.443 99.7967 101.313 99.45 101.313 98.93V91.39C101.313 86.6667 99.4718 84.7167 94.9868 84.7167C91.0001 84.7167 86.9701 86.06 86.9701 89.0283C86.9701 90.285 87.8151 91.13 89.0718 91.13C90.4801 91.13 91.4118 90.22 91.4118 88.79C91.4118 87.1433 92.2134 86.385 93.9251 86.385C96.0268 86.385 97.0018 87.62 97.0018 90.2633V90.9133C97.0018 91.65 96.8284 91.8233 96.0701 91.9317C88.9418 92.8633 85.9084 94.6833 85.9084 97.9983C85.9084 99.4067 86.4501 100.533 87.4684 101.292C88.3568 101.942 89.5484 102.288 90.9568 102.288C93.2101 102.288 95.4201 101.27 96.8718 99.5583V99.5366C96.9368 99.45 96.9801 99.4067 97.0234 99.385C97.0234 99.4067 97.0234 99.4283 97.0234 99.4717V99.4933C97.1534 101.205 98.3451 102.288 100.165 102.288C101.53 102.288 102.613 101.79 103.047 100.945L103.068 100.902V99.9917L102.787 100.057C102.288 100.208 101.92 100.187 101.682 99.9917ZM97.0018 94.51V95.7233C97.0018 97.9767 95.2901 99.6667 93.0151 99.6667C91.3684 99.6667 90.3934 98.7567 90.3934 97.2183C90.3934 95.2033 92.2568 93.925 95.7884 93.5567C95.8968 93.5567 96.0051 93.535 96.1134 93.535C96.4384 93.535 96.6551 93.6 96.7851 93.7083C96.9368 93.8817 97.0018 94.12 97.0018 94.51Z" fill="white"/>
<path d="M115.332 84.7383C113.078 84.7383 111.063 85.7133 110.153 86.6233C110.002 86.775 109.893 86.8183 109.872 86.7967C109.85 86.7967 109.807 86.7317 109.807 86.6017V79.04C109.807 78.52 109.655 78.1083 109.352 77.87C109.048 77.61 108.615 77.545 108.052 77.6533L103.112 78.6067V80.0583L103.372 80.0367C104.217 79.95 104.758 80.0367 105.04 80.2967C105.322 80.5567 105.452 81.0333 105.452 81.8133V101.465C105.452 101.985 105.82 102.353 106.318 102.353C106.838 102.353 107.185 101.877 107.532 101.422C107.878 100.967 108.225 100.512 108.658 100.512C109.005 100.512 109.46 100.75 110.067 101.053C111.15 101.595 112.623 102.353 114.66 102.353C116.805 102.353 118.82 101.53 120.337 100.035C122.005 98.3667 122.872 96.0483 122.872 93.3183C122.872 90.7833 122.092 88.6167 120.64 87.0567C119.275 85.54 117.39 84.7383 115.332 84.7383ZM118.43 94.8567C118.43 98.4317 116.913 100.642 114.487 100.642C111.258 100.642 109.807 97.89 109.807 95.3333V92.105C109.807 88.01 112.385 87.5767 113.49 87.5767C116.35 87.555 118.43 90.6317 118.43 94.8567Z" fill="white"/>
<path d="M130.563 99.9917C130.325 99.7967 130.195 99.45 130.195 98.93V79.0183C130.195 78.4983 130.043 78.0867 129.74 77.8483C129.437 77.5883 129.003 77.5233 128.44 77.61L123.5 78.5633V80.015L123.76 79.9933C124.605 79.9067 125.147 79.9933 125.428 80.2533C125.71 80.5133 125.84 80.99 125.84 81.77V98.9517C125.84 101.097 127.01 102.31 129.047 102.31C130.087 102.31 131.387 101.963 131.907 100.967L131.928 100.923V100.013L131.647 100.078C131.192 100.208 130.802 100.187 130.563 99.9917Z" fill="white"/>
<path d="M150.518 100.1C150.02 100.23 149.652 100.187 149.413 99.9917C149.175 99.7967 149.045 99.45 149.045 98.93V91.39C149.045 86.6667 147.203 84.7167 142.718 84.7167C138.732 84.7167 134.702 86.06 134.702 89.0283C134.702 90.285 135.547 91.13 136.803 91.13C138.212 91.13 139.143 90.22 139.143 88.79C139.143 87.1433 139.945 86.385 141.657 86.385C143.758 86.385 144.733 87.62 144.733 90.2633V90.9133C144.733 91.65 144.56 91.8233 143.802 91.9317C136.673 92.8633 133.64 94.6833 133.64 97.9983C133.64 99.4067 134.182 100.533 135.2 101.292C136.088 101.942 137.28 102.288 138.688 102.288C140.942 102.288 143.152 101.27 144.603 99.5583V99.5366C144.668 99.45 144.712 99.4067 144.755 99.385C144.755 99.4067 144.755 99.4283 144.755 99.4717V99.4933C144.885 101.205 146.077 102.288 147.897 102.288C149.262 102.288 150.345 101.79 150.778 100.945L150.8 100.902V99.9917L150.518 100.1ZM144.733 94.51V95.7233C144.733 97.9767 143.022 99.6667 140.747 99.6667C139.1 99.6667 138.125 98.7567 138.125 97.2183C138.125 95.2033 139.988 93.925 143.52 93.5567C143.628 93.5567 143.737 93.535 143.845 93.535C144.17 93.535 144.387 93.6 144.517 93.7083C144.668 93.8817 144.733 94.12 144.733 94.51Z" fill="white"/>
<path d="M104.39 118.755H119.99V122.85H109.373V129.242H119.058V133.185H109.373V142.567H104.39V118.755Z" fill="white"/>
<path d="M121.008 137.497V137.453C121.008 134.247 123.5 132.362 127.877 132.08L132.253 131.82V130.737C132.253 129.177 131.235 128.202 129.35 128.202C127.552 128.202 126.468 129.047 126.23 130.173L126.187 130.325H121.788L121.81 130.13C122.07 126.858 124.887 124.518 129.545 124.518C134.117 124.518 137.063 126.88 137.063 130.433V142.567H132.253V139.923H132.167C131.17 141.743 129.285 142.848 126.945 142.848C123.392 142.827 121.008 140.617 121.008 137.497ZM128.505 139.317C130.672 139.317 132.253 137.93 132.253 136.088V134.81L128.613 135.048C126.75 135.157 125.775 135.958 125.775 137.215V137.258C125.775 138.558 126.837 139.317 128.505 139.317ZM127.422 122.893L130.433 117.26H134.702L130.65 122.893H127.422Z" fill="white"/>
<path d="M139.512 133.705C139.512 128.028 142.892 124.518 148.178 124.518C152.988 124.518 156.022 127.465 156.217 131.3V131.408H151.753L151.71 131.257C151.407 129.567 150.237 128.288 148.243 128.288C145.882 128.288 144.408 130.325 144.408 133.705V133.727C144.408 137.193 145.903 139.143 148.265 139.143C150.193 139.143 151.407 137.952 151.732 136.175L151.753 136.023H156.238V136.132C156 139.988 152.945 142.935 148.243 142.935C142.848 142.913 139.512 139.403 139.512 133.705Z" fill="white"/>
<path d="M158.492 120.098C158.492 118.733 159.618 117.585 161.07 117.585C162.522 117.585 163.648 118.733 163.648 120.098C163.648 121.463 162.522 122.612 161.07 122.612C159.618 122.59 158.492 121.463 158.492 120.098ZM158.665 124.865H163.475V142.545H158.665V124.865Z" fill="white"/>
<path d="M171.362 118.755H166.552V142.567H171.362V118.755Z" fill="white"/>
<path d="M73.6883 136.977H51.3499V120.228H54.1449V134.182H73.6883V136.977Z" fill="#081717"/>
<path d="M72.1717 124.388H70.8717C71.045 127.097 71.1534 131.105 71.1534 135.59C71.1534 140.075 71.045 144.083 70.8717 146.792H72.15C72.15 146.792 74.425 139.642 82.03 136.11V135.612V135.113C74.4034 131.473 72.1717 124.388 72.1717 124.388Z" fill="#081717"/>
<rect x="80.1666" y="164.884" width="73.5864" height="15.1664" fill="#FFFA52"/>
<path d="M86.964 172.868C86.7031 172.868 86.4976 172.96 86.3476 173.144C86.2 173.326 86.1263 173.579 86.1263 173.906C86.1263 174.226 86.2 174.48 86.3476 174.667C86.4976 174.851 86.7018 174.943 86.9596 174.943C87.2289 174.943 87.4429 174.85 87.6016 174.663C87.7603 174.476 87.8396 174.224 87.8396 173.906C87.8396 173.587 87.7603 173.335 87.6016 173.148C87.4457 172.961 87.2331 172.868 86.964 172.868ZM87.1126 170.592C87.7702 170.592 88.3568 170.713 88.8727 170.955C89.3913 171.194 89.7966 171.536 90.0885 171.981C90.3805 172.422 90.5263 172.93 90.5263 173.503C90.5263 174.137 90.3805 174.643 90.0885 175.022C89.7993 175.398 89.4041 175.586 88.9025 175.586C88.6502 175.586 88.4319 175.527 88.2476 175.408C88.0663 175.287 87.9586 175.131 87.9246 174.939H87.8822C87.7943 175.139 87.6583 175.293 87.474 175.4C87.2897 175.506 87.0729 175.558 86.8236 175.558C86.3816 175.558 86.0243 175.404 85.7523 175.097C85.4803 174.789 85.3443 174.385 85.3443 173.886C85.3443 173.407 85.4803 173.018 85.7523 172.718C86.0243 172.416 86.3759 172.265 86.8066 172.265C87.0333 172.265 87.2402 172.316 87.4272 172.419C87.6144 172.518 87.7475 172.652 87.8268 172.821H87.8736V172.344H88.592V174.584C88.592 174.718 88.6302 174.825 88.7069 174.903C88.7835 174.982 88.8968 175.022 89.0469 175.022C89.2878 175.022 89.4834 174.889 89.6335 174.623C89.7867 174.358 89.8631 173.991 89.8631 173.523C89.8631 172.808 89.6052 172.232 89.0895 171.795C88.5736 171.356 87.8992 171.137 87.066 171.137C86.5218 171.137 86.0344 171.254 85.6035 171.487C85.1728 171.722 84.8368 172.05 84.5961 172.474C84.3551 172.894 84.2347 173.372 84.2347 173.906C84.2347 174.473 84.3635 174.965 84.6215 175.381C84.8794 175.794 85.2308 176.104 85.6757 176.312C86.1207 176.519 86.6324 176.623 87.2104 176.623C87.8056 176.623 88.2491 176.567 88.5411 176.454V176.998C88.1614 177.114 87.7078 177.171 87.1808 177.171C86.6563 177.171 86.1732 177.097 85.7311 176.947C85.2889 176.799 84.9078 176.588 84.5875 176.312C84.2672 176.036 84.0179 175.69 83.8393 175.274C83.6609 174.859 83.5714 174.395 83.5714 173.882C83.5714 173.235 83.7202 172.662 84.0179 172.162C84.3182 171.662 84.7363 171.276 85.2719 171.002C85.8105 170.729 86.424 170.592 87.1126 170.592ZM96.4438 176.272H95.4915V173.752H92.3416V176.272H91.3894V170.58H92.3416V172.986H95.4915V170.58H96.4438V176.272ZM101.566 176.272L101.005 174.734H98.6673L98.106 176.272H97.1156L99.3303 170.58H100.359L102.574 176.272H101.566ZM99.8235 171.527L98.9095 174.024H100.763L99.8489 171.527H99.8235ZM105.711 176.272H103.25V170.58H105.699C106.243 170.58 106.679 170.71 107.008 170.971C107.336 171.228 107.501 171.572 107.501 172C107.501 172.303 107.395 172.574 107.182 172.813C106.972 173.05 106.715 173.191 106.408 173.239V173.271C106.828 173.315 107.165 173.465 107.42 173.72C107.675 173.973 107.803 174.287 107.803 174.663C107.803 175.165 107.617 175.56 107.246 175.846C106.875 176.13 106.363 176.272 105.711 176.272ZM104.202 171.302V173.002H105.269C105.68 173.002 105.996 172.926 106.217 172.774C106.438 172.621 106.549 172.404 106.549 172.123C106.549 171.86 106.455 171.657 106.268 171.515C106.081 171.373 105.815 171.302 105.469 171.302H104.202ZM104.202 175.55H105.516C105.944 175.55 106.27 175.47 106.493 175.31C106.717 175.149 106.829 174.915 106.829 174.608C106.829 173.987 106.373 173.677 105.46 173.677H104.202V175.55ZM112.432 175.507V176.272H108.623V170.58H109.576V175.507H112.432ZM117.244 176.272L116.683 174.734H114.345L113.784 176.272H112.794L115.008 170.58H116.037L118.252 176.272H117.244ZM115.502 171.527L114.588 174.024H116.441L115.527 171.527H115.502ZM119.88 176.272H118.928V170.58H122.758V171.342H119.88V173.144H122.516V173.89H119.88V176.272ZM127.158 176.272L126.597 174.734H124.259L123.698 176.272H122.707L124.922 170.58H125.951L128.165 176.272H127.158ZM125.415 171.527L124.501 174.024H126.355L125.441 171.527H125.415ZM131.209 176.367C130.348 176.367 129.663 176.102 129.156 175.574C128.652 175.045 128.399 174.329 128.399 173.424C128.399 172.525 128.653 171.811 129.16 171.282C129.668 170.751 130.351 170.486 131.209 170.486C131.906 170.486 132.495 170.668 132.973 171.034C133.452 171.397 133.732 171.874 133.811 172.466H132.867C132.782 172.1 132.588 171.808 132.285 171.59C131.985 171.369 131.626 171.259 131.209 171.259C130.651 171.259 130.205 171.456 129.87 171.85C129.539 172.242 129.373 172.767 129.373 173.424C129.373 174.09 129.539 174.618 129.87 175.01C130.202 175.399 130.65 175.594 131.214 175.594C131.639 175.594 131.996 175.498 132.285 175.306C132.577 175.114 132.771 174.846 132.867 174.501H133.815C133.699 175.09 133.411 175.549 132.952 175.878C132.496 176.204 131.915 176.367 131.209 176.367ZM135.626 176.272H134.674V170.58H135.626V176.272ZM140.566 175.507V176.272H136.757V170.58H137.709V175.507H140.566ZM141.382 170.58H143.682C144.277 170.58 144.762 170.754 145.136 171.101C145.513 171.448 145.701 171.898 145.701 172.45C145.701 173.005 145.51 173.457 145.127 173.807C144.748 174.154 144.256 174.328 143.652 174.328H142.334V176.272H141.382V170.58ZM142.334 171.326V173.586H143.427C143.841 173.586 144.161 173.487 144.388 173.29C144.614 173.093 144.728 172.814 144.728 172.454C144.728 172.096 144.614 171.819 144.388 171.622C144.164 171.424 143.845 171.326 143.431 171.326H142.334ZM150.429 175.507V176.272H146.535V170.58H150.429V171.342H147.487V173.006H150.271V173.74H147.487V175.507H150.429Z" fill="black"/>
</svg>
