<svg width="62" height="39" viewBox="0 0 62 39" fill="none" xmlns="http://www.w3.org/2000/svg">
<path d="M51.4516 18.5473V0.633591H0V19.8283H19.7962V38.9237H62V18.5473H51.4516Z" fill="#FFFC3E"/>
<path d="M11.1219 5.36026L11.2141 5.37019C11.9924 5.47942 12.2587 5.69788 12.2587 6.20431V9.2131C12.2587 9.511 12.0641 9.65995 11.6749 9.65995H8.13146C7.7423 9.65995 7.54772 9.511 7.54772 9.2131V6.20431C7.54772 5.68795 7.82423 5.46949 8.59232 5.37019L8.68449 5.36026V4.68502H4.10669V5.36026L4.19886 5.37019C4.97719 5.47942 5.24346 5.69788 5.24346 6.20431V13.8107C5.24346 14.337 4.96695 14.5554 4.19886 14.6647L4.10669 14.6746V15.3498H8.68449V14.6746L8.59232 14.6647C7.80375 14.5654 7.54772 14.3469 7.54772 13.8107V10.931C7.54772 10.6331 7.7423 10.4841 8.11098 10.4841H11.6851C12.0641 10.4841 12.2484 10.6331 12.2484 10.931V13.8107C12.2484 14.337 11.9719 14.5554 11.2038 14.6647L11.1116 14.6746V15.3498H15.6894V14.6746L15.5973 14.6647C14.8087 14.5654 14.5527 14.3469 14.5527 13.8107V6.20431C14.5527 5.68795 14.8292 5.46949 15.5973 5.37019L15.6894 5.36026V4.68502H11.1116V5.36026H11.1219Z" fill="#071717"/>
<path d="M23.7902 14.3866C23.6775 14.2973 23.6161 14.1384 23.6161 13.9001V10.4444C23.6161 8.27969 22.7456 7.38599 20.6256 7.38599C18.7413 7.38599 16.8364 8.00165 16.8364 9.36206C16.8364 9.938 17.2358 10.3253 17.8298 10.3253C18.4955 10.3253 18.9358 9.90821 18.9358 9.25283C18.9358 8.49815 19.3148 8.1506 20.1238 8.1506C21.1172 8.1506 21.5781 8.71661 21.5781 9.92807V10.226C21.5781 10.5636 21.4961 10.643 21.1377 10.6927C17.7684 11.1197 16.3346 11.9538 16.3346 13.4731C16.3346 14.1185 16.5906 14.6349 17.072 14.9824C17.4918 15.2803 18.0551 15.4392 18.7208 15.4392C19.7859 15.4392 20.8305 14.9725 21.5166 14.188V14.1781C21.5473 14.1384 21.5678 14.1185 21.5883 14.1086C21.5883 14.1185 21.5883 14.1285 21.5883 14.1483V14.1582C21.6498 14.9427 22.213 15.4392 23.0733 15.4392C23.7185 15.4392 24.2305 15.2108 24.4354 14.8236L24.4456 14.8037V14.3866L24.3125 14.4164C24.0769 14.4859 23.9028 14.476 23.7902 14.3866ZM21.5781 11.8744V12.4304C21.5781 13.4631 20.769 14.2377 19.6937 14.2377C18.9154 14.2377 18.4545 13.8206 18.4545 13.1156C18.4545 12.1921 19.3353 11.6062 21.0046 11.4374C21.0558 11.4374 21.107 11.4275 21.1582 11.4275C21.3118 11.4275 21.4142 11.4573 21.4757 11.5069C21.5473 11.5864 21.5781 11.6956 21.5781 11.8744Z" fill="#071717"/>
<path d="M30.2422 7.39688C29.1771 7.39688 28.2247 7.84373 27.7946 8.26079C27.7229 8.3303 27.6717 8.35015 27.6614 8.34022C27.6512 8.34022 27.6307 8.31044 27.6307 8.25086V4.78529C27.6307 4.54697 27.559 4.3583 27.4156 4.24907C27.2723 4.12991 27.0674 4.10012 26.8012 4.14977L24.4662 4.58669V5.252L24.5891 5.24207C24.9885 5.20235 25.2445 5.24207 25.3776 5.36123C25.5108 5.48039 25.5722 5.69885 25.5722 6.05633V15.0628C25.5722 15.3012 25.7463 15.47 25.9819 15.47C26.2277 15.47 26.3915 15.2515 26.5554 15.043C26.7192 14.8344 26.8831 14.6259 27.0879 14.6259C27.2518 14.6259 27.4668 14.7351 27.7536 14.8742C28.2657 15.1224 28.9621 15.47 29.9247 15.47C30.9386 15.47 31.891 15.0926 32.6079 14.4075C33.3965 13.6428 33.8061 12.5803 33.8061 11.3292C33.8061 10.1673 33.4374 9.17435 32.7513 8.45939C32.1061 7.76429 31.2151 7.39688 30.2422 7.39688ZM31.7067 12.0342C31.7067 13.6726 30.9898 14.6855 29.8428 14.6855C28.3169 14.6855 27.6307 13.4244 27.6307 12.2526V10.7731C27.6307 8.8963 28.8494 8.69771 29.3717 8.69771C30.7235 8.68778 31.7067 10.0978 31.7067 12.0342Z" fill="#071717"/>
<path d="M37.4416 14.3866C37.329 14.2973 37.2675 14.1384 37.2675 13.9001V4.7744C37.2675 4.53608 37.1959 4.34741 37.0525 4.23818C36.9091 4.11902 36.7043 4.08923 36.438 4.12895L34.103 4.56587V5.23118L34.2259 5.22125C34.6253 5.18153 34.8814 5.22125 35.0145 5.34041C35.1476 5.45957 35.2091 5.67803 35.2091 6.03551V13.91C35.2091 14.8931 35.7621 15.4491 36.7248 15.4491C37.2163 15.4491 37.8308 15.2903 38.0766 14.8335L38.0868 14.8136V14.3966L37.9537 14.4264C37.7386 14.4859 37.5543 14.476 37.4416 14.3866Z" fill="#071717"/>
<path d="M46.8739 14.4363C46.6383 14.4959 46.4642 14.476 46.3516 14.3866C46.2389 14.2973 46.1775 14.1384 46.1775 13.9001V10.4444C46.1775 8.27969 45.307 7.38599 43.187 7.38599C41.3027 7.38599 39.3978 8.00165 39.3978 9.36206C39.3978 9.938 39.7972 10.3253 40.3912 10.3253C41.0569 10.3253 41.4973 9.90821 41.4973 9.25283C41.4973 8.49815 41.8762 8.1506 42.6852 8.1506C43.6786 8.1506 44.1395 8.71661 44.1395 9.92807V10.226C44.1395 10.5636 44.0575 10.643 43.6991 10.6927C40.3298 11.1197 38.896 11.9538 38.896 13.4731C38.896 14.1185 39.152 14.6349 39.6334 14.9824C40.0532 15.2803 40.6165 15.4392 41.2822 15.4392C42.3473 15.4392 43.3919 14.9725 44.078 14.188V14.1781C44.1088 14.1384 44.1292 14.1185 44.1497 14.1086C44.1497 14.1185 44.1497 14.1285 44.1497 14.1483V14.1582C44.2112 14.9427 44.7744 15.4392 45.6347 15.4392C46.2799 15.4392 46.7919 15.2108 46.9968 14.8236L47.007 14.8037V14.3866L46.8739 14.4363ZM44.1395 11.8744V12.4304C44.1395 13.4631 43.3304 14.2377 42.2551 14.2377C41.4768 14.2377 41.0159 13.8206 41.0159 13.1156C41.0159 12.1921 41.8967 11.6062 43.566 11.4374C43.6172 11.4374 43.6684 11.4275 43.7196 11.4275C43.8732 11.4275 43.9756 11.4573 44.0371 11.5069C44.1088 11.5864 44.1395 11.6956 44.1395 11.8744Z" fill="#071717"/>
<path d="M25.0704 22.986H32.4441V24.8628H27.4259V27.7921H32.0037V29.5994H27.4259V33.8991H25.0704V22.986Z" fill="#071717"/>
<path d="M32.9253 31.5755V31.5556C32.9253 30.086 34.103 29.222 36.1717 29.093L38.2405 28.9738V28.4773C38.2405 27.7623 37.7591 27.3155 36.8681 27.3155C36.0181 27.3155 35.5061 27.7028 35.3934 28.2191L35.3729 28.2886H33.294L33.3042 28.1993C33.4271 26.6998 34.7585 25.6274 36.9603 25.6274C39.1212 25.6274 40.514 26.7098 40.514 28.3383V33.8991H38.2405V32.6876H38.1995C37.7284 33.5217 36.8374 34.0282 35.7314 34.0282C34.0518 34.0182 32.9253 33.0054 32.9253 31.5755ZM36.4687 32.4096C37.4928 32.4096 38.2405 31.7741 38.2405 30.93V30.3441L36.5199 30.4534C35.6392 30.503 35.1783 30.8704 35.1783 31.4464V31.4662C35.1783 32.062 35.6802 32.4096 36.4687 32.4096ZM35.9567 24.8826L37.3802 22.3008H39.3977L37.4826 24.8826H35.9567Z" fill="#071717"/>
<path d="M41.6714 29.8377C41.6714 27.2361 43.269 25.6274 45.7679 25.6274C48.0414 25.6274 49.4752 26.9779 49.5673 28.7355V28.7852H47.4577L47.4372 28.7156C47.2938 27.9411 46.7408 27.3552 45.7986 27.3552C44.6823 27.3552 43.9859 28.2887 43.9859 29.8377V29.8477C43.9859 31.4365 44.6925 32.3302 45.8088 32.3302C46.7203 32.3302 47.2938 31.784 47.4474 30.9698L47.4577 30.9002H49.5776V30.9499C49.4649 32.7174 48.0209 34.0679 45.7986 34.0679C43.2485 34.058 41.6714 32.4493 41.6714 29.8377Z" fill="#071717"/>
<path d="M50.6426 23.6017C50.6426 22.9761 51.1751 22.4498 51.8613 22.4498C52.5474 22.4498 53.08 22.9761 53.08 23.6017C53.08 24.2273 52.5474 24.7536 51.8613 24.7536C51.1751 24.7436 50.6426 24.2273 50.6426 23.6017ZM50.7245 25.7863H52.998V33.8892H50.7245V25.7863Z" fill="#071717"/>
<path d="M56.7257 22.986H54.4521V33.8991H56.7257V22.986Z" fill="#071717"/>
<path d="M10.5586 31.3372H0V23.6613H1.32111V30.0562H10.5586V31.3372Z" fill="#FFFC3E"/>
<path d="M9.84176 25.5678H9.22729C9.30922 26.8091 9.36043 28.6461 9.36043 30.7016C9.36043 32.7571 9.30922 34.5942 9.22729 35.8354H9.83152C9.83152 35.8354 10.9068 32.5585 14.5015 30.9399V30.7116V30.4832C10.8966 28.8149 9.84176 25.5678 9.84176 25.5678Z" fill="#FFFC3E"/>
</svg>
